<svg xmlns="http://www.w3.org/2000/svg" width="96" height="56" viewBox="0 0 96 56" fill="none"><g id="AWS logo" clip-path="url(#clip0_650_2812)"><path id="Vector" d="M27.2434 20.3403C27.2434 21.4928 27.368 22.4273 27.5861 23.1126C27.8352 23.7979 28.1467 24.5454 28.5828 25.3553C28.7386 25.6045 28.8009 25.8537 28.8009 26.0717C28.8009 26.3832 28.614 26.6947 28.209 27.0062L26.2466 28.3145C25.9663 28.5014 25.686 28.5948 25.4368 28.5948C25.1253 28.5948 24.8138 28.4391 24.5023 28.1587C24.0662 27.6915 23.6924 27.1931 23.3809 26.6947C23.0694 26.1652 22.758 25.5734 22.4153 24.8569C19.9857 27.7226 16.9331 29.1555 13.2575 29.1555C10.641 29.1555 8.55399 28.4079 7.02769 26.9128C5.50138 25.4176 4.72266 23.4241 4.72266 20.9322C4.72266 18.2845 5.65713 16.1352 7.55722 14.5155C9.45731 12.8957 11.9804 12.0858 15.1887 12.0858C16.2478 12.0858 17.338 12.1793 18.4905 12.335C19.643 12.4908 20.8267 12.74 22.0727 13.0203V10.7464C22.0727 8.37909 21.5743 6.72819 20.6087 5.76257C19.6119 4.79695 17.9299 4.32972 15.5314 4.32972C14.4412 4.32972 13.3198 4.45431 12.1673 4.73465C11.0148 5.015 9.8934 5.35764 8.80318 5.79372C8.3048 6.01177 7.93101 6.13636 7.71296 6.19866C7.49492 6.26096 7.33918 6.29211 7.21458 6.29211C6.77849 6.29211 6.56045 5.98062 6.56045 5.32649V3.80018C6.56045 3.3018 6.62275 2.92801 6.77849 2.70997C6.93424 2.49192 7.21458 2.27388 7.65067 2.05584C8.74088 1.49515 10.0491 1.02792 11.5754 0.65413C13.1017 0.249192 14.7215 0.0622981 16.4347 0.0622981C20.1414 0.0622981 22.8514 0.903322 24.5957 2.58537C26.3089 4.26742 27.1811 6.82164 27.1811 10.248V20.3403H27.2434ZM14.5969 25.075C15.6248 25.075 16.6839 24.8881 17.8053 24.5143C18.9266 24.1405 19.9234 23.4552 20.7644 22.5208C21.2628 21.9289 21.6366 21.2748 21.8235 20.5272C22.0104 19.7796 22.135 18.8763 22.135 17.8173V16.509C21.2316 16.2909 20.266 16.1041 19.2693 15.9795C18.2725 15.8549 17.3069 15.7926 16.3413 15.7926C14.2543 15.7926 12.728 16.1975 11.7 17.0385C10.6721 17.8796 10.1737 19.0632 10.1737 20.6207C10.1737 22.0847 10.5475 23.1749 11.3263 23.9225C12.0738 24.7012 13.164 25.075 14.5969 25.075ZM39.6096 28.4391C39.0489 28.4391 38.6751 28.3456 38.4259 28.1276C38.1767 27.9407 37.9587 27.5046 37.7718 26.9128L30.4518 2.83456C30.2649 2.21158 30.1714 1.80664 30.1714 1.5886C30.1714 1.09022 30.4206 0.809875 30.919 0.809875H33.9716C34.5634 0.809875 34.9684 0.903322 35.1864 1.12137C35.4356 1.30826 35.6225 1.74435 35.8094 2.33618L41.0424 22.9568L45.9017 2.33618C46.0574 1.7132 46.2443 1.30826 46.4935 1.12137C46.7427 0.934471 47.1788 0.809875 47.7395 0.809875H50.2314C50.8232 0.809875 51.2282 0.903322 51.4774 1.12137C51.7266 1.30826 51.9446 1.74435 52.0692 2.33618L56.9907 23.206L62.3795 2.33618C62.5664 1.7132 62.7845 1.30826 63.0025 1.12137C63.2517 0.934471 63.6567 0.809875 64.2173 0.809875H67.1142C67.6126 0.809875 67.8929 1.05907 67.8929 1.5886C67.8929 1.74435 67.8618 1.90009 67.8306 2.08699C67.7995 2.27388 67.7372 2.52307 67.6126 2.86571L60.1057 26.9439C59.9188 27.5669 59.7007 27.9718 59.4515 28.1587C59.2023 28.3456 58.7974 28.4702 58.2679 28.4702H55.589C54.9972 28.4702 54.5923 28.3768 54.3431 28.1587C54.0939 27.9407 53.8758 27.5358 53.7513 26.9128L48.9231 6.82164L44.1262 26.8816C43.9705 27.5046 43.7836 27.9095 43.5344 28.1276C43.2852 28.3456 42.8491 28.4391 42.2884 28.4391H39.6096ZM79.6361 29.2801C78.0164 29.2801 76.3966 29.0932 74.8391 28.7194C73.2817 28.3456 72.0669 27.9407 71.257 27.4735C70.7586 27.1931 70.416 26.8816 70.2914 26.6013C70.1668 26.3209 70.1045 26.0094 70.1045 25.7291V24.1405C70.1045 23.4864 70.3537 23.1749 70.8209 23.1749C71.0078 23.1749 71.1947 23.206 71.3816 23.2683C71.5685 23.3306 71.8488 23.4552 72.1603 23.5798C73.2194 24.0471 74.3719 24.4209 75.5867 24.67C76.8327 24.9192 78.0475 25.0438 79.2935 25.0438C81.2559 25.0438 82.7822 24.7012 83.8412 24.0159C84.9003 23.3306 85.461 22.3339 85.461 21.0568C85.461 20.1846 85.1806 19.4682 84.62 18.8763C84.0593 18.2845 83.0002 17.755 81.4739 17.2566L76.9573 15.8549C74.6834 15.1384 73.0014 14.0794 71.9734 12.6777C70.9455 11.3071 70.416 9.7808 70.416 8.16105C70.416 6.85279 70.6963 5.70027 71.257 4.70351C71.8177 3.70674 72.5653 2.83456 73.4997 2.14928C74.4342 1.43286 75.4933 0.903322 76.7393 0.529534C77.9852 0.155745 79.2935 0 80.664 0C81.3493 0 82.0657 0.031149 82.751 0.124596C83.4674 0.218043 84.1216 0.342639 84.7757 0.467236C85.3987 0.622981 85.9905 0.778726 86.5512 0.96562C87.1119 1.15251 87.548 1.33941 87.8595 1.5263C88.2955 1.7755 88.607 2.02469 88.7939 2.30503C88.9808 2.55422 89.0743 2.89686 89.0743 3.33295V4.79695C89.0743 5.45108 88.8251 5.79372 88.3578 5.79372C88.1087 5.79372 87.7037 5.66913 87.1742 5.41993C85.3987 4.61006 83.4051 4.20512 81.1936 4.20512C79.4181 4.20512 78.0164 4.48546 77.0507 5.07729C76.0851 5.66913 75.5867 6.57245 75.5867 7.84956C75.5867 8.72173 75.8982 9.46931 76.5212 10.0611C77.1442 10.653 78.2967 11.2448 79.9476 11.7743L84.3708 13.176C86.6135 13.8925 88.2332 14.8892 89.1989 16.1664C90.1645 17.4435 90.6317 18.9075 90.6317 20.5272C90.6317 21.8666 90.3514 23.0814 89.8218 24.1405C89.2612 25.1996 88.5136 26.134 87.548 26.8816C86.5823 27.6604 85.4298 28.221 84.0904 28.626C82.6887 29.0621 81.2247 29.2801 79.6361 29.2801Z" fill="#252F3E"></path><g id="Group"><path id="Vector_2" fill-rule="evenodd" clip-rule="evenodd" d="M85.5237 44.4186C75.2756 51.9879 60.3864 56.0061 47.5841 56.0061C29.6423 56.0061 13.4759 49.3713 1.2655 38.3446C0.299876 37.4724 1.17205 36.2887 2.32456 36.974C15.5318 44.6367 31.8227 49.2779 48.6743 49.2779C60.0437 49.2779 72.5345 46.9106 84.0285 42.0513C85.7417 41.2726 87.2057 43.1727 85.5237 44.4186Z" fill="#FF9900"></path><path id="Vector_3" fill-rule="evenodd" clip-rule="evenodd" d="M89.7907 39.5595C88.4824 37.8774 81.1313 38.7496 77.7983 39.1545C76.8015 39.2791 76.6458 38.407 77.5491 37.7528C83.4051 33.6412 93.0302 34.8248 94.1516 36.1954C95.2729 37.5971 93.8401 47.2221 88.3578 51.8322C87.5168 52.5486 86.7069 52.1748 87.0807 51.2404C88.3267 48.1566 91.099 41.2104 89.7907 39.5595Z" fill="#FF9900"></path></g></g><defs><clipPath id="clip0_650_2812"><rect width="95.5733" height="56.006" fill="white"></rect></clipPath></defs></svg>