<svg xmlns="http://www.w3.org/2000/svg" width="66" height="62" viewBox="0 0 66 62" fill="none"><g id="Azure logo" clip-path="url(#clip0_650_2836)"><path id="Vector" d="M21.7208 0.0621729H40.9653L20.9874 59.2893C20.8853 59.5918 20.7366 59.8765 20.5468 60.1332C20.3574 60.3901 20.1289 60.6153 19.8696 60.8015C19.6102 60.9876 19.324 61.1323 19.02 61.2299C18.7159 61.3275 18.3988 61.3779 18.0801 61.3779H3.10304C2.61687 61.3779 2.13719 61.2624 1.70468 61.0397C1.2717 60.8175 0.897951 60.4953 0.614444 60.0998C0.330753 59.7043 0.145163 59.247 0.072986 58.7657C0.000628956 58.2844 0.044531 57.7925 0.199814 57.3316L18.8127 2.14915C18.9143 1.84671 19.0631 1.56216 19.2533 1.30525C19.4427 1.04834 19.672 0.823141 19.9305 0.636964C20.1899 0.450787 20.4761 0.306073 20.7801 0.208513C21.0842 0.110953 21.4012 0.0605469 21.7199 0.0605469V0.0613599L21.7208 0.0621729Z" fill="url(#paint0_linear_650_2836)"></path><path id="Vector_2" d="M57.1964 61.3774H39.9161C39.7234 61.3774 39.5308 61.3595 39.3405 61.323C39.1511 61.2872 38.9649 61.2335 38.7852 61.1628C38.6056 61.0921 38.4332 61.0043 38.2698 60.9018C38.1066 60.7987 37.9533 60.6806 37.8121 60.549L18.2025 42.2353C17.9951 42.0416 17.8506 41.7901 17.7879 41.5134C17.7252 41.2366 17.7472 40.9474 17.8512 40.6833C17.9552 40.4193 18.1362 40.1926 18.3708 40.0329C18.6057 39.8736 18.883 39.7882 19.1667 39.7882H49.6835L57.1948 61.3782L57.1964 61.3774Z" fill="#0078D4"></path><path id="Vector_3" d="M41.0338 0.0635147L27.5624 39.794L49.5736 39.7892L57.1239 61.3792H39.9086C39.7306 61.3776 39.5526 61.3613 39.3769 61.3296C39.2013 61.2979 39.029 61.2516 38.8615 61.1898C38.5257 61.0674 38.2133 60.8884 37.9379 60.6605L24.7007 48.3062L20.995 59.2345C20.8991 59.5077 20.7674 59.767 20.6031 60.0052C20.274 60.4845 19.8238 60.8679 19.2983 61.1166C19.0366 61.2404 18.7597 61.3287 18.4747 61.3792H3.11142C2.62037 61.3808 2.13582 61.2638 1.69924 61.0378C1.26259 60.8119 0.886733 60.4843 0.603432 60.0826C0.320131 59.6808 0.137719 59.2168 0.071614 58.7296C0.00574857 58.2423 0.0578877 57.7463 0.223645 57.2833L18.8064 2.19195C18.9031 1.88382 19.0487 1.59358 19.2373 1.3318C19.4251 1.07001 19.6544 0.839117 19.9145 0.648875C20.1747 0.458633 20.4641 0.310667 20.7706 0.211481C21.0771 0.112295 21.3982 0.0618887 21.721 0.0635147H41.0347H41.0338Z" fill="url(#paint1_linear_650_2836)"></path><path id="Vector_4" d="M64.9134 57.3329C65.0687 57.7941 65.1125 58.2856 65.041 58.767C64.9688 59.2482 64.7835 59.7054 64.5004 60.1011C64.2168 60.4964 63.8432 60.8185 63.4104 61.0407C62.9777 61.263 62.4982 61.379 62.0118 61.3792H40.5632C41.0494 61.3792 41.529 61.2629 41.9624 61.041C42.3949 60.819 42.7689 60.4963 43.0526 60.1011C43.3363 59.706 43.5217 59.2483 43.5941 58.767C43.6664 58.2857 43.6225 57.7938 43.4672 57.3329L24.8536 2.14882C24.6487 1.54093 24.2583 1.01261 23.7373 0.638268C23.4788 0.452091 23.1926 0.30819 22.8894 0.21063C22.5861 0.11307 22.2691 0.0634766 21.9512 0.0634766H43.3989C43.7176 0.0634766 44.0339 0.11307 44.338 0.21063C44.6412 0.30819 44.9274 0.452904 45.1867 0.638268C45.4453 0.824445 45.6737 1.04965 45.8631 1.30574C46.0526 1.56184 46.2005 1.84639 46.303 2.14882L64.9166 57.3329H64.9134Z" fill="url(#paint2_linear_650_2836)"></path></g><defs><linearGradient id="paint0_linear_650_2836" x1="28.7443" y1="4.60685" x2="8.74445" y2="63.6876" gradientUnits="userSpaceOnUse"><stop stop-color="#114A8B"></stop><stop offset="1" stop-color="#0669BC"></stop></linearGradient><linearGradient id="paint1_linear_650_2836" x1="34.9794" y1="32.1364" x2="30.3534" y2="33.7055" gradientUnits="userSpaceOnUse"><stop stop-opacity="0.3"></stop><stop offset="0.1" stop-opacity="0.2"></stop><stop offset="0.3" stop-opacity="0.1"></stop><stop offset="0.6" stop-opacity="0.1"></stop><stop offset="1" stop-opacity="0"></stop></linearGradient><linearGradient id="paint2_linear_650_2836" x1="32.4267" y1="2.88459" x2="54.3777" y2="61.3637" gradientUnits="userSpaceOnUse"><stop stop-color="#3CCBF4"></stop><stop offset="1" stop-color="#2892DF"></stop></linearGradient><clipPath id="clip0_650_2836"><rect width="65.1123" height="61.44" fill="white"></rect></clipPath></defs></svg>