<svg xmlns="http://www.w3.org/2000/svg" width="75" height="60" viewBox="0 0 75 60" fill="none"><g id="Google logo" clip-path="url(#clip0_650_2820)"><path id="Vector" d="M49.55 16.4913L56.0091 10.0322L56.4382 7.31366C44.6697 -3.39032 25.9607 -2.17515 15.3484 9.84554C12.4005 13.1832 10.2158 17.3462 9.0498 21.6468L11.3622 21.3192L24.2804 19.1902L25.2761 18.1716C31.0211 11.8599 40.7392 11.0116 47.3719 16.3799L49.55 16.4913Z" fill="#EA4335"></path><path id="Vector_2" d="M65.2121 21.4537C63.7284 15.9871 60.679 11.0707 56.4406 7.31055L47.3743 16.3768C51.2033 19.5048 53.3814 24.2148 53.2897 29.1574V30.7656C57.7442 30.7656 61.357 34.3784 61.357 38.8329C61.357 43.2875 57.7442 46.8118 53.2897 46.8118H37.1322L35.5469 48.5346V58.2134L37.1322 59.7332H53.2897C64.878 59.8249 74.3472 50.5916 74.4389 39.0032C74.4946 31.9775 71.0292 25.3907 65.2121 21.4537Z" fill="#4285F4"></path><path id="Vector_3" d="M20.9954 59.7328H37.1332V46.8147H20.9954C19.8523 46.8147 18.7255 46.5658 17.6872 46.0908L15.3977 46.7918L8.89281 53.2508L8.32617 55.4486C11.975 58.2032 16.4262 59.7525 20.9954 59.7328Z" fill="#34A853"></path><path id="Vector_4" d="M20.9942 17.8273C9.40255 17.8961 0.0644068 27.3488 0.13319 38.9405C0.172495 45.4126 3.19568 51.5049 8.32495 55.4517L17.686 46.0906C13.6245 44.2564 11.8198 39.4776 13.654 35.4161C15.4882 31.3546 20.267 29.5499 24.3285 31.3841C26.1169 32.1932 27.5515 33.6245 28.3605 35.4161L37.7216 26.0551C33.7387 20.8472 27.5482 17.8043 20.9942 17.8273Z" fill="#FBBC05"></path></g><defs><clipPath id="clip0_650_2820"><rect width="74.3056" height="59.7333" fill="white" transform="translate(0.133789)"></rect></clipPath></defs></svg>