<svg xmlns="http://www.w3.org/2000/svg" width="121" height="31" viewBox="0 0 121 31" fill="none"><path d="M56.7651 9.40193C56.1251 9.38254 55.6051 9.86735 55.5851 10.4685V16.0535C52.8453 13.9203 48.8254 14.347 46.6255 17.0037C45.7255 18.1091 45.2256 19.4666 45.2256 20.8822C45.1656 24.2953 47.9654 27.1072 51.4853 27.1653C55.0052 27.2235 57.9051 24.5086 57.965 21.0955V10.5461C57.965 10.2358 57.8451 9.94492 57.6251 9.7316C57.3851 9.51829 57.0851 9.40193 56.7651 9.40193ZM55.2652 22.3754C54.8652 23.3063 54.1052 24.0432 53.1452 24.4504C52.1453 24.8577 51.0253 24.8577 50.0254 24.4504C49.0654 24.0626 48.3254 23.3063 47.9254 22.3948C47.5055 21.4446 47.5055 20.3586 47.9254 19.389C48.3254 18.4582 49.0854 17.7213 50.0254 17.3334C51.0253 16.9262 52.1453 16.9262 53.1452 17.3334C54.1052 17.7406 54.8652 18.4776 55.2652 19.4084C55.6851 20.3392 55.6851 21.4252 55.2652 22.3754ZM70.0646 16.5189C67.5847 14.1143 63.5448 14.1143 61.0649 16.5189C59.865 17.6825 59.205 19.2533 59.205 20.8822C59.145 24.2953 61.9449 27.1072 65.4648 27.1653C68.9846 27.2235 71.8845 24.5086 71.9445 21.0955V20.8822C71.9445 20.0677 71.7845 19.2726 71.4645 18.5163C71.1445 17.76 70.6645 17.0813 70.0646 16.5189ZM69.2446 22.356C69.0446 22.8214 68.7446 23.2287 68.3846 23.5778C68.0247 23.9268 67.5847 24.2177 67.1247 24.4116C66.1247 24.8189 65.0048 24.8189 64.0048 24.4116C63.0448 24.0238 62.2849 23.2675 61.8849 22.356C61.4649 21.4058 61.4649 20.3198 61.8849 19.3502C62.2849 18.4194 63.0448 17.7019 64.0048 17.2946C65.0048 16.8874 66.1247 16.8874 67.1247 17.2946C67.6047 17.4886 68.0247 17.7794 68.3846 18.1285C68.7446 18.4776 69.0446 18.9042 69.2446 19.3502C69.6646 20.3392 69.6646 21.4252 69.2446 22.356ZM96.4035 15.8402C96.4035 15.6851 96.3635 15.5299 96.3035 15.3942C96.2435 15.2584 96.1435 15.1421 96.0435 15.0257C95.9435 14.9288 95.8035 14.8318 95.6636 14.7736C95.5236 14.7154 95.3636 14.6767 95.2036 14.6767C94.9836 14.6767 94.7636 14.7348 94.5636 14.8512L87.7639 19.1369V10.5655C87.7639 10.2552 87.6439 9.96431 87.4239 9.75099C87.2039 9.53767 86.9039 9.40193 86.5839 9.40193C85.9239 9.40193 85.404 9.90613 85.384 10.5461V25.8854C85.384 26.1957 85.504 26.4866 85.7239 26.6999C85.9439 26.9326 86.2439 27.049 86.5639 27.049C86.8839 27.049 87.1839 26.9326 87.4039 26.6999C87.6239 26.4866 87.7639 26.1957 87.7439 25.8854V21.91L89.1238 21.0374L94.3836 26.7581C94.6036 26.952 94.8836 27.0684 95.1836 27.049C95.3436 27.049 95.5036 27.0296 95.6436 26.952C95.7835 26.8938 95.9035 26.8163 96.0235 26.6999C96.1235 26.5836 96.2235 26.4672 96.2835 26.3315C96.3435 26.1957 96.3835 26.0406 96.3835 25.8854C96.3835 25.5946 96.2635 25.3037 96.0635 25.0904L91.1837 19.7575L95.9435 16.7516C96.2635 16.5577 96.4235 16.2087 96.4035 15.8402ZM76.6643 18.1285C77.0243 17.7794 77.4643 17.4886 77.9443 17.2946C78.4442 17.1007 78.9642 16.9843 79.5042 16.9843C79.9842 16.9843 80.4442 17.0619 80.8841 17.2171C81.3241 17.3916 81.7441 17.6243 82.1041 17.9346C82.3241 18.1091 82.6041 18.1867 82.8841 18.1867C83.204 18.2061 83.524 18.0897 83.744 17.857C83.964 17.6437 84.084 17.3334 84.084 17.0231C84.084 16.6935 83.944 16.3638 83.664 16.1505C82.5241 15.1615 81.0441 14.6185 79.5042 14.6573C75.9843 14.6573 73.1244 17.4304 73.1244 20.8434C73.1244 24.2565 75.9643 27.0102 79.4642 27.0296C81.0041 27.0296 82.4841 26.506 83.644 25.5364C83.884 25.3231 84.024 25.0128 84.024 24.6831C84.044 24.0626 83.544 23.5584 82.9241 23.539H82.8441C82.5641 23.539 82.3041 23.6165 82.0841 23.7717C81.7241 24.082 81.3241 24.3147 80.8841 24.4892C80.4442 24.6443 79.9642 24.7219 79.5042 24.7219C78.9642 24.7219 78.4442 24.6249 77.9443 24.4116C77.4643 24.2177 77.0443 23.9268 76.6643 23.5778C75.1044 22.0651 75.1044 19.6217 76.6443 18.1091C76.6643 18.1479 76.6643 18.1479 76.6643 18.1285ZM120.023 15.4717C119.783 15.2584 119.523 15.1033 119.223 15.0063C118.883 14.89 118.523 14.8124 118.163 14.7736C117.803 14.7348 117.443 14.7154 117.083 14.7154C116.363 14.7154 115.623 14.8318 114.943 15.0839C114.263 15.3166 113.643 15.6657 113.083 16.0923V15.8596C113.063 15.2196 112.503 14.7348 111.843 14.7542C111.544 14.7639 111.26 14.8835 111.048 15.0887C110.836 15.2939 110.713 15.5695 110.703 15.8596V25.9242C110.723 26.5642 111.283 27.049 111.943 27.0296C112.242 27.0199 112.526 26.9004 112.738 26.6951C112.95 26.4899 113.073 26.2143 113.083 25.9242V20.9016C113.083 20.378 113.183 19.8738 113.403 19.389C113.603 18.9236 113.883 18.5163 114.263 18.1673C114.623 17.8182 115.063 17.5273 115.523 17.3334C116.023 17.1395 116.543 17.0231 117.083 17.0231C117.623 17.0231 118.143 17.1201 118.643 17.2946C118.803 17.3722 118.963 17.411 119.143 17.411C119.303 17.411 119.463 17.3916 119.603 17.314C119.743 17.2558 119.863 17.1783 119.983 17.0619C120.083 16.965 120.183 16.8292 120.243 16.6935C120.303 16.5577 120.343 16.4026 120.343 16.2474C120.363 15.9565 120.243 15.6851 120.023 15.4717ZM108.983 18.5163C107.963 16.228 105.643 14.7348 103.083 14.7154C99.5634 14.7154 96.7235 17.4692 96.7035 20.8822C96.7035 24.2953 99.5634 27.0684 103.083 27.0684C104.603 27.0684 106.083 26.5448 107.243 25.5752L107.283 25.5364C107.383 25.4588 107.483 25.3619 107.543 25.2455C107.923 24.7025 107.783 23.985 107.243 23.6165C106.783 23.3256 106.183 23.3838 105.783 23.7523C105.743 23.7911 105.623 23.888 105.623 23.9074L105.603 23.9268C105.263 24.1983 104.883 24.431 104.463 24.5668C104.023 24.7219 103.563 24.7995 103.083 24.7801C102.643 24.7801 102.223 24.7219 101.803 24.5862C101.403 24.4504 101.023 24.2759 100.683 24.0238C100.343 23.7911 100.043 23.5002 99.8034 23.1705C99.5434 22.8408 99.3634 22.453 99.2434 22.0651H108.243C108.563 22.0651 108.863 21.9488 109.083 21.7355C109.323 21.5222 109.443 21.2313 109.423 20.921C109.443 20.0871 109.283 19.2726 108.983 18.5163ZM99.2434 19.7575C99.3634 19.3502 99.5434 18.9818 99.8034 18.6521C100.043 18.3224 100.343 18.0315 100.683 17.7988C101.023 17.5661 101.403 17.3722 101.803 17.2364C102.203 17.1007 102.643 17.0425 103.063 17.0425C103.483 17.0425 103.923 17.1007 104.323 17.2364C105.123 17.4885 105.823 17.9928 106.323 18.6521C106.583 18.9818 106.763 19.3696 106.903 19.7575H99.2434ZM115.963 25.3812C115.503 25.3812 115.143 25.7497 115.143 26.1957C115.143 26.6417 115.523 26.9908 115.983 26.9908C116.443 26.9908 116.803 26.6224 116.803 26.1957C116.803 25.7303 116.423 25.3812 115.963 25.3812ZM115.963 26.8163C115.603 26.8357 115.303 26.5642 115.283 26.2151C115.263 25.8661 115.543 25.5752 115.903 25.5558C116.263 25.5364 116.563 25.8079 116.583 26.1569V26.1957C116.603 26.5254 116.323 26.8163 115.983 26.8163H115.963Z" fill="#0091E2"></path><path d="M116.162 26.1954C116.262 26.176 116.322 26.0984 116.322 26.0015C116.322 25.9239 116.302 25.8657 116.242 25.8269C116.162 25.7882 116.062 25.7688 115.962 25.7688C115.862 25.7688 115.742 25.7688 115.642 25.7882V26.5832H115.822V26.273H115.902C116.002 26.273 116.062 26.3117 116.082 26.3893C116.102 26.4475 116.122 26.5251 116.142 26.5832H116.342C116.302 26.5251 116.282 26.4475 116.282 26.3893C116.302 26.3117 116.242 26.2342 116.162 26.1954ZM115.922 26.1372H115.822V25.9045H115.922C116.042 25.9045 116.102 25.9627 116.102 26.0209C116.122 26.0984 116.022 26.1566 115.922 26.1372ZM43.0447 12.0002C42.9247 11.9032 41.8447 11.1081 39.5248 11.1081C38.9248 11.1081 38.3049 11.1663 37.7049 11.2633C37.2649 8.29624 34.725 6.8612 34.625 6.78363L34.005 6.43457L33.605 6.99695C33.1051 7.75325 32.7251 8.60651 32.5051 9.47917C32.0851 11.1663 32.3451 12.7565 33.2251 14.1139C32.1651 14.6957 30.4452 14.8315 30.0852 14.8509L1.68631 14.8509C0.946336 14.8509 0.34636 15.4326 0.34636 16.1501C0.306362 18.5548 0.726345 20.9595 1.58631 23.2284C2.56627 25.7106 4.02621 27.5529 5.90614 28.6776C8.02606 29.9381 11.4859 30.6556 15.3858 30.6556C17.1457 30.6556 18.9056 30.5005 20.6456 30.1902C23.0655 29.7636 25.3854 28.9491 27.5253 27.7662C29.2852 26.7772 30.8651 25.5167 32.2051 24.0428C34.465 21.58 35.805 18.8263 36.7849 16.3829H37.1849C39.6448 16.3829 41.1647 15.4326 42.0047 14.6181C42.5647 14.1139 42.9847 13.4934 43.2847 12.7953L43.4646 12.2911L43.0447 12.0002Z" fill="#0091E2"></path><path d="M4.32631 14.0559H8.12616C8.30616 14.0559 8.46615 13.9201 8.46615 13.7262L8.46615 10.4295C8.46615 10.255 8.32616 10.0998 8.12616 10.0998H4.32631C4.14632 10.0998 3.98633 10.2356 3.98633 10.4295L3.98633 13.7262C4.00633 13.9201 4.14632 14.0559 4.32631 14.0559ZM9.56611 14.0559L13.366 14.0559C13.5459 14.0559 13.7059 13.9201 13.7059 13.7262V10.4295C13.7059 10.255 13.5659 10.0998 13.366 10.0998L9.56611 10.0998C9.38611 10.0998 9.22612 10.2356 9.22612 10.4295L9.22612 13.7262C9.24612 13.9201 9.38611 14.0559 9.56611 14.0559ZM14.9059 14.0559H18.7057C18.8857 14.0559 19.0457 13.9201 19.0457 13.7262V10.4295C19.0457 10.255 18.9057 10.0998 18.7057 10.0998H14.9059C14.7259 10.0998 14.5659 10.2356 14.5659 10.4295V13.7262C14.5659 13.9201 14.7059 14.0559 14.9059 14.0559ZM20.1657 14.0559H23.9655C24.1455 14.0559 24.3055 13.9201 24.3055 13.7262V10.4295C24.3055 10.255 24.1655 10.0998 23.9655 10.0998H20.1657C19.9857 10.0998 19.8257 10.2356 19.8257 10.4295V13.7262C19.8257 13.9201 19.9857 14.0559 20.1657 14.0559ZM9.56611 9.34355L13.366 9.34355C13.5459 9.34355 13.7059 9.18841 13.7059 9.01387L13.7059 5.71717C13.7059 5.54264 13.5659 5.3875 13.366 5.3875H9.56611C9.38611 5.3875 9.22612 5.52325 9.22612 5.71717V9.01387C9.24612 9.18841 9.38611 9.34355 9.56611 9.34355ZM14.9059 9.34355H18.7057C18.8857 9.34355 19.0457 9.18841 19.0457 9.01387V5.71717C19.0457 5.54264 18.9057 5.3875 18.7057 5.3875H14.9059C14.7259 5.3875 14.5659 5.52325 14.5659 5.71717L14.5659 9.01387C14.5659 9.18841 14.7059 9.34355 14.9059 9.34355ZM20.1657 9.34355H23.9655C24.1455 9.34355 24.3055 9.18841 24.3055 9.01387V5.71717C24.3055 5.54264 24.1455 5.3875 23.9655 5.3875L20.1657 5.3875C19.9857 5.3875 19.8257 5.52325 19.8257 5.71717V9.01387C19.8257 9.18841 19.9857 9.34355 20.1657 9.34355ZM20.1657 4.6118L23.9655 4.6118C24.1455 4.6118 24.3055 4.47606 24.3055 4.28214V0.985434C24.3055 0.810903 24.1455 0.655762 23.9655 0.655762L20.1657 0.655762C19.9857 0.655762 19.8257 0.791511 19.8257 0.985434V4.28214C19.8257 4.45667 19.9857 4.6118 20.1657 4.6118ZM25.4655 14.0559L29.2653 14.0559C29.4453 14.0559 29.6053 13.9201 29.6053 13.7262V10.4295C29.6053 10.255 29.4653 10.0998 29.2653 10.0998L25.4655 10.0998C25.2855 10.0998 25.1255 10.2356 25.1255 10.4295V13.7262C25.1455 13.9201 25.2855 14.0559 25.4655 14.0559Z" fill="#0091E2"></path></svg>