<svg xmlns="http://www.w3.org/2000/svg" width="42" height="62" viewBox="0 0 42 62" fill="none"><g id="Figma logo" clip-path="url(#clip0_623_316)"><path id="Vector" d="M11.1902 61.6265C16.8427 61.6265 21.4302 57.039 21.4302 51.3865V41.1465H11.1902C5.53771 41.1465 0.950195 45.734 0.950195 51.3865C0.950195 57.039 5.53771 61.6265 11.1902 61.6265Z" fill="#0ACF83"></path><path id="Vector_2" d="M0.951172 30.907C0.951172 25.2545 5.53869 20.667 11.1912 20.667H21.4312V41.147H11.1912C5.53869 41.147 0.951172 36.5595 0.951172 30.907Z" fill="#A259FF"></path><path id="Vector_3" d="M0.950195 10.4265C0.950195 4.77404 5.53771 0.186523 11.1902 0.186523H21.4302V20.6665H11.1902C5.53771 20.6665 0.950195 16.079 0.950195 10.4265Z" fill="#F24E1E"></path><path id="Vector_4" d="M21.4307 0.186523H31.6707C37.3231 0.186523 41.9107 4.77404 41.9107 10.4265C41.9107 16.079 37.3231 20.6665 31.6707 20.6665H21.4307V0.186523Z" fill="#FF7262"></path><path id="Vector_5" d="M41.9097 30.907C41.9097 36.5595 37.3222 41.147 31.6697 41.147C26.0172 41.147 21.4297 36.5595 21.4297 30.907C21.4297 25.2545 26.0172 20.667 31.6697 20.667C37.3222 20.667 41.9097 25.2545 41.9097 30.907Z" fill="#1ABCFE"></path></g><defs><clipPath id="clip0_623_316"><rect width="40.9682" height="61.44" fill="white" transform="translate(0.946289 0.186523)"></rect></clipPath></defs></svg>