<svg xmlns="http://www.w3.org/2000/svg" width="51" height="63" viewBox="0 0 51 63" fill="none"><g id="Flutter logo" clip-path="url(#clip0_623_398)"><path id="Vector" d="M10.1935 41.0321L0.732422 31.571L31.4524 0.853516H50.3721M50.3721 29.1995H31.4524L24.3653 36.2867L33.8264 45.7478" fill="#42A5F5" fill-opacity="0.8"></path><path id="Vector_2" d="M24.3652 55.2067L31.4524 62.2938H50.3721L33.8263 45.748" fill="#0D47A1"></path><path id="Vector_3" d="M14.9268 45.7531L24.373 36.3044L33.8192 45.7506L24.373 55.1993L14.9268 45.7531Z" fill="#42A5F5"></path><path id="Vector_4" d="M24.373 55.1991L33.8192 45.7529L35.1378 47.0715L25.6916 56.5177L24.373 55.1991Z" fill="url(#paint0_linear_623_398)"></path><path id="Vector_5" d="M24.3652 55.2065L38.4029 50.3567L33.8263 45.7454" fill="url(#paint1_linear_623_398)"></path></g><defs><linearGradient id="paint0_linear_623_398" x1="29.0979" y1="50.4743" x2="30.4166" y2="51.7929" gradientUnits="userSpaceOnUse"><stop offset="0.2" stop-opacity="0.15"></stop><stop offset="0.85" stop-color="#616161" stop-opacity="0.01"></stop></linearGradient><linearGradient id="paint1_linear_623_398" x1="24.3686" y1="50.4762" x2="38.406" y2="50.4762" gradientUnits="userSpaceOnUse"><stop offset="0.2" stop-opacity="0.55"></stop><stop offset="0.85" stop-color="#616161" stop-opacity="0.01"></stop></linearGradient><clipPath id="clip0_623_398"><rect width="49.6397" height="61.44" fill="white" transform="translate(0.732422 0.853516)"></rect></clipPath></defs></svg>