<svg xmlns="http://www.w3.org/2000/svg" width="104" height="39" viewBox="0 0 104 39" fill="none"><g id="Group"><g id="Group_2"><path id="Vector" d="M8.6723 12.0437C8.53082 12.0437 8.38934 11.9022 8.53082 11.7608L9.5212 10.3459C9.66268 10.2045 9.80416 10.063 10.0871 10.063H27.9139C28.0554 10.063 28.1969 10.2045 28.0554 10.3459L27.2065 11.6193C27.0651 11.7608 26.9236 11.9022 26.6406 11.9022L8.6723 12.0437ZM1.17372 16.5712C1.03224 16.5712 0.890754 16.4297 1.03224 16.2882L2.02262 14.8734C2.1641 14.7319 2.30558 14.5904 2.58855 14.5904H25.3673C25.5087 14.5904 25.6502 14.7319 25.6502 14.8734L25.2258 16.2882C25.2258 16.4297 24.9428 16.5712 24.8013 16.5712H1.17372ZM13.1997 21.2401C13.0583 21.2401 12.9168 21.0986 13.0583 20.9571L13.7657 19.6838C13.9072 19.5423 14.0486 19.4008 14.3316 19.4008H24.2354C24.3769 19.4008 24.5184 19.5423 24.5184 19.6838L24.3769 20.8156C24.3769 20.9571 24.2354 21.0986 24.0939 21.0986L13.1997 21.2401ZM64.9824 11.0534L56.6349 13.1756C55.9275 13.3171 55.786 13.4586 55.2201 12.6097C54.5127 11.7608 53.9468 11.1948 52.8149 10.7704C49.7023 9.21408 46.5897 9.63852 43.76 11.4778C40.3644 13.6 38.6666 16.8541 38.6666 20.9571C38.6666 24.9186 41.4963 28.1727 45.4578 28.7387C48.8534 29.1631 51.683 28.0313 53.9468 25.4846C54.3712 24.9186 54.7957 24.3527 55.3616 23.6453H45.7408C44.7504 23.6453 44.4674 22.9379 44.7504 22.089C45.4578 20.5327 46.5897 17.986 47.2971 16.7127C47.4385 16.4297 47.863 15.8638 48.5704 15.8638H66.6802C66.5387 17.2786 66.5387 18.5519 66.3972 19.9667C65.8313 23.5038 64.558 26.8994 62.2942 29.729C58.7572 34.398 54.0882 37.3691 48.146 38.218C43.1941 38.9254 38.6666 37.935 34.7051 34.9639C31.0266 32.1342 28.9043 28.4557 28.3384 23.9283C27.631 18.5519 29.3288 13.6 32.5829 9.35556C36.1199 4.68664 40.7889 1.71551 46.5897 0.725128C51.2586 -0.123767 55.786 0.442162 59.7475 3.13033C62.4357 4.82812 64.275 7.23332 65.5483 10.2045C65.6898 10.7704 65.5483 10.9119 64.9824 11.0534Z" fill="#00ACD7"></path><path id="Vector_2" d="M81.3929 38.639C76.8654 38.4975 72.7624 37.2241 69.2254 34.253C66.2542 31.7063 64.4149 28.4522 63.849 24.6322C63.0001 18.9729 64.5564 14.021 67.952 9.63505C71.6306 4.82465 76.0165 2.41945 81.9588 1.28759C87.0522 0.438696 91.8626 0.863143 96.1071 3.83427C100.069 6.52244 102.474 10.201 103.181 15.0114C104.03 21.8025 102.049 27.1789 97.5219 31.8478C94.2678 35.2434 90.1648 37.2241 85.6374 38.2145C84.081 38.4975 82.6662 38.4975 81.3929 38.639ZM93.2774 18.5484C93.2774 17.841 93.2774 17.4166 93.1359 16.8507C92.287 11.8988 87.7596 9.06912 82.9492 10.201C78.2803 11.1914 75.3091 14.1625 74.1773 18.8314C73.3284 22.6514 75.1676 26.6129 78.7047 28.3107C81.3929 29.4426 84.2225 29.3011 86.7692 28.0278C90.8722 26.047 92.9945 22.7929 93.2774 18.5484Z" fill="#00ACD7"></path></g></g></svg>