<svg xmlns="http://www.w3.org/2000/svg" width="44" height="63" viewBox="0 0 44 63" fill="none"><g id="Group 23"><path id="Vector" d="M43.6744 12.9277L39.709 57.3515L21.8839 62.2931L4.10787 57.3583L0.146484 12.9277H43.6744Z" fill="#E44D26"></path><path id="Vector_2" d="M21.9102 58.5159L36.3138 54.5228L39.7023 16.5605H21.9102V58.5159Z" fill="#F16529"></path><path id="Vector_3" d="M14.2014 27.459H21.9102V22.0098H8.24609L8.37645 23.4717L9.71585 38.4883H21.9102V33.0391H14.6994L14.2014 27.459ZM15.4295 41.213H9.95933L10.7227 49.7691L21.8851 52.8677L21.9102 52.8609V47.1914L21.8863 47.1977L15.8175 45.559L15.4295 41.213Z" fill="#EBEBEB"></path><path id="Vector_4" d="M4.19629 0.853516H6.96552V3.58948H9.49878V0.853516H12.2682V9.13869H9.49895V6.36434H6.96569V9.13869H4.19646L4.19629 0.853516ZM15.9097 3.60108H13.4721V0.853516H21.1185V3.60108H18.6794V9.13869H15.9102V3.60108H15.9097ZM22.332 0.853516H25.2194L26.9956 3.76471L28.7701 0.853516H31.6588V9.13869H28.9008V5.03211L26.9956 7.97793H26.9478L25.0415 5.03211V9.13869H22.332V0.853516ZM33.0369 0.853516H35.807V6.40017H39.7013V9.13869H33.0368V0.853516H33.0369Z" fill="black"></path><path id="Vector_5" d="M21.8918 38.4883H28.6019L27.9692 45.5556L21.8916 47.196V52.8651L33.0629 49.7691L33.1448 48.8485L34.4255 34.5024L34.5584 33.0391H21.8918V38.4883ZM21.8918 27.4457V27.459H35.0542L35.1634 26.2343L35.4119 23.4717L35.5421 22.0098H21.8918V27.4457Z" fill="white"></path></g></svg>