<svg xmlns="http://www.w3.org/2000/svg" width="44" height="45" viewBox="0 0 44 45" fill="none"><g id="Laravel logo" clip-path="url(#clip0_623_378)"><path id="Vector" d="M42.9649 10.5381C42.9808 10.5969 42.9889 10.6575 42.989 10.7184V20.1851C42.989 20.3066 42.957 20.426 42.8961 20.5311C42.8352 20.6362 42.7476 20.7234 42.6422 20.7839L34.6966 25.3585V34.4257C34.6966 34.6724 34.5655 34.9002 34.3515 35.0244L17.7659 44.5722C17.7279 44.5938 17.6865 44.6076 17.6451 44.6223C17.6296 44.6274 17.6149 44.6369 17.5985 44.6412C17.4826 44.6718 17.3607 44.6718 17.2447 44.6412C17.2258 44.6361 17.2085 44.6257 17.1904 44.6188C17.1524 44.605 17.1127 44.5929 17.0765 44.5722L0.494307 35.0244C0.388966 34.9639 0.301437 34.8767 0.240544 34.7716C0.179651 34.6665 0.147544 34.5471 0.147461 34.4257L0.147461 6.02567C0.147461 5.96355 0.156089 5.90315 0.171619 5.84448C0.176796 5.82464 0.188875 5.80652 0.195778 5.78667C0.20872 5.75043 0.220799 5.71333 0.239781 5.67968C0.252723 5.65725 0.271704 5.63913 0.287235 5.61843C0.307079 5.59082 0.325198 5.56234 0.348494 5.53819C0.368338 5.51834 0.394222 5.50367 0.416655 5.48642C0.441676 5.46571 0.464109 5.44328 0.492582 5.42688L8.78497 0.653C8.88996 0.592587 9.00896 0.560791 9.13009 0.560791C9.25122 0.560791 9.37022 0.592587 9.47521 0.653L17.7667 5.42688H17.7685C17.7961 5.44414 17.8194 5.46571 17.8444 5.48555C17.8668 5.50281 17.8918 5.51834 17.9117 5.53732C17.9358 5.56234 17.9531 5.59082 17.9738 5.61843C17.9885 5.63913 18.0083 5.65725 18.0204 5.67968C18.0402 5.7142 18.0515 5.75043 18.0653 5.78667C18.0722 5.80652 18.0842 5.82464 18.0894 5.84534C18.1053 5.90414 18.1134 5.96476 18.1136 6.02567V23.764L25.0229 19.7856V10.7176C25.0229 10.6572 25.0315 10.5959 25.0471 10.5381C25.0531 10.5174 25.0643 10.4993 25.0712 10.4795C25.085 10.4432 25.0971 10.4061 25.1161 10.3725C25.129 10.35 25.148 10.3319 25.1627 10.3112C25.1834 10.2836 25.2006 10.2551 25.2248 10.231C25.2446 10.2111 25.2697 10.1965 25.2921 10.1792C25.318 10.1585 25.3404 10.1361 25.368 10.1197L33.6613 5.34578C33.7662 5.28528 33.8853 5.25344 34.0064 5.25344C34.1275 5.25344 34.2466 5.28528 34.3515 5.34578L42.643 10.1197C42.6724 10.1369 42.6948 10.1585 42.7207 10.1783C42.7423 10.1956 42.7673 10.2111 42.7871 10.2301C42.8113 10.2551 42.8285 10.2836 42.8493 10.3112C42.8648 10.3319 42.8838 10.35 42.8958 10.3725C42.9157 10.4061 42.9269 10.4432 42.9407 10.4795C42.9485 10.4993 42.9597 10.5174 42.9649 10.5381ZM41.6068 19.7856V11.9134L38.7052 13.5838L34.6966 15.8918V23.764L41.6077 19.7856H41.6068ZM33.3153 34.0262V26.1488L29.3723 28.4007L18.1127 34.8269V42.7784L33.3153 34.0262ZM1.52967 7.22065V34.0262L16.7305 42.7776V34.8277L8.78928 30.3334L8.7867 30.3317L8.78325 30.3299C8.7565 30.3144 8.73407 30.292 8.70904 30.273C8.68747 30.2557 8.66245 30.2419 8.64347 30.223L8.64175 30.2204C8.61931 30.1988 8.60378 30.172 8.5848 30.1479C8.56754 30.1246 8.54684 30.1047 8.53303 30.0806L8.53217 30.078C8.51664 30.0521 8.50715 30.0211 8.49593 29.9917C8.48472 29.9658 8.47005 29.9417 8.46315 29.9141C8.45452 29.8813 8.45279 29.8459 8.44934 29.8123C8.44589 29.7864 8.43899 29.7605 8.43899 29.7346V11.199L4.43127 8.89017L1.52967 7.22065ZM9.13095 2.04901L2.2225 6.02567L9.12923 10.0023L16.0368 6.02481L9.12923 2.04901H9.13095ZM12.7237 26.8666L16.7314 24.5595V7.22065L13.8298 8.89103L9.8212 11.199V28.5379L12.7237 26.8666ZM34.0064 6.74179L27.0988 10.7184L34.0064 14.6951L40.9131 10.7176L34.0064 6.74179ZM33.3153 15.8918L29.3067 13.5838L26.4051 11.9134V19.7856L30.4128 22.0928L33.3153 23.764V15.8918ZM17.4208 33.6319L27.5526 27.8477L32.6173 24.9573L25.7149 20.9832L17.7676 25.5586L10.5244 29.7286L17.4208 33.6319Z" fill="#FF2D20"></path></g><defs><clipPath id="clip0_623_378"><rect width="42.9179" height="44.3733" fill="white" transform="translate(0.147461 0.414062)"></rect></clipPath></defs></svg>