<svg xmlns="http://www.w3.org/2000/svg" width="137" height="39" viewBox="0 0 137 39" fill="none"><path d="M127.258 16.0859C127.146 16.1233 126.997 16.3846 126.997 16.5339C126.96 17.5073 126.96 20.1233 126.96 21.9206C126.96 21.958 127.034 22.07 127.109 22.07C127.482 22.1073 128.381 22.1073 129.128 22.1073C130.176 22.1073 130.81 21.958 131.146 21.8086C132.045 21.3606 132.456 20.3873 132.456 19.3393C132.456 16.9446 130.773 16.0486 128.304 16.0486C128.12 16.0113 127.632 16.0113 127.258 16.0859ZM133.616 27.118C133.616 24.686 131.821 23.3393 128.568 23.3393C128.418 23.3393 127.37 23.302 127.146 23.3766C127.072 23.414 126.96 23.4513 126.96 23.526C126.96 25.2833 126.922 28.0513 126.997 29.1367C127.034 29.622 127.408 30.2593 127.821 30.4833C128.269 30.7447 129.28 30.782 129.952 30.782C131.933 30.71 133.616 29.6247 133.616 27.118ZM122.248 14.7393C122.509 14.7393 123.221 14.8139 125.128 14.8139C126.922 14.8139 128.344 14.7766 130.101 14.7766C132.232 14.7766 135.186 15.5259 135.186 18.7419C135.186 20.3126 134.064 21.5846 132.642 22.182C132.568 22.2193 132.568 22.2566 132.642 22.294C134.698 22.8166 136.533 24.0886 136.533 26.5206C136.533 28.878 135.037 30.374 132.906 31.3073C131.597 31.8673 129.989 32.0567 128.306 32.0567C127.034 32.0567 123.669 31.9073 121.8 31.9447C121.613 31.87 121.986 30.9713 122.136 30.822C122.584 30.7847 122.922 30.7847 123.408 30.6353C124.08 30.4487 124.157 30.262 124.232 29.2513C124.269 28.39 124.269 25.3233 124.269 23.1553C124.269 20.1633 124.306 18.1446 124.269 17.1713C124.232 16.4219 123.97 16.1606 123.445 16.0113C123.034 15.9366 122.322 15.8246 121.762 15.7499C121.685 15.6726 122.096 14.8513 122.248 14.7393ZM108.034 30.0727C108.632 30.558 109.792 30.7447 110.802 30.7447C112.149 30.7447 113.458 30.4833 114.73 29.3233C116.04 28.126 116.936 26.3313 116.936 23.414C116.936 20.6459 115.888 18.3659 113.72 17.0193C112.485 16.2699 110.914 15.9339 109.082 15.9339C108.56 15.9339 108.034 15.9713 107.698 16.1206C107.624 16.1579 107.437 16.3819 107.437 16.5313C107.4 17.0166 107.4 20.8326 107.4 23.038C107.4 25.3206 107.4 28.5367 107.437 28.91C107.474 29.2513 107.661 29.8113 108.034 30.0727ZM102.424 14.7393C102.909 14.7393 104.706 14.8139 105.565 14.8139C107.098 14.8139 108.221 14.7393 111.176 14.7393C113.645 14.7393 115.701 15.4113 117.197 16.6459C118.992 18.1793 119.928 20.3499 119.928 22.966C119.928 26.67 118.245 28.838 116.525 30.0727C114.842 31.3447 112.597 32.054 109.456 32.054C107.773 32.054 104.893 32.0167 102.498 31.9793H102.461C102.349 31.7553 102.648 30.894 102.872 30.8567C103.506 30.782 103.696 30.7447 103.994 30.6327C104.517 30.446 104.592 30.1473 104.666 29.2487C104.741 27.566 104.704 25.5073 104.704 23.19C104.704 21.5446 104.741 18.3286 104.666 17.2806C104.592 16.4193 104.218 16.1953 103.469 16.0459C103.096 15.9713 102.608 15.8593 101.936 15.7846C101.864 15.6353 102.312 14.8886 102.424 14.7393Z" fill="#8E714E"></path><path d="M72.6533 31.0084C72.056 30.9337 71.6053 30.8217 71.0453 30.5977C70.9706 30.5604 70.8586 30.299 70.8586 30.187C70.8213 29.3257 70.8213 26.859 70.8213 25.2137C70.8213 23.867 70.5973 22.707 70.0346 21.923C69.3626 20.987 68.4266 20.427 67.192 20.427C66.1066 20.427 64.6479 21.1763 63.4506 22.1843C63.4133 22.2217 63.2266 22.371 63.2639 22.1097C63.2639 21.8483 63.3013 21.2857 63.3386 20.9123C63.3759 20.5763 63.1519 20.3896 63.1519 20.3896C62.3653 20.8003 60.1599 21.2883 59.3359 21.363C58.7386 21.475 58.5866 22.035 59.2239 22.2617H59.2612C59.9333 22.4483 60.3839 22.6723 60.7199 22.8963C60.9813 23.083 60.9439 23.3817 60.9439 23.5683C60.9813 25.4003 60.9813 28.243 60.9066 29.8137C60.8693 30.411 60.7199 30.6377 60.2719 30.7497L60.3093 30.7124C59.9733 30.787 59.7119 30.8617 59.2612 30.899C59.1119 31.0484 59.1119 31.835 59.2612 32.0217C59.5226 32.0217 60.9439 31.947 62.1413 31.947C63.7493 31.947 64.6106 32.0217 65.0213 32.0217C65.2079 31.835 65.2453 31.0857 65.1333 30.899C64.6479 30.8617 64.3093 30.8244 64.0106 30.7124C63.5626 30.6004 63.4506 30.3764 63.4133 29.8884C63.3759 28.579 63.3759 25.811 63.3759 23.9417C63.3759 23.419 63.5253 23.1923 63.6746 23.043C64.2346 22.5577 65.1706 22.219 65.9573 22.219C66.7439 22.219 67.2666 22.4803 67.64 22.779C68.1626 23.227 68.3493 23.8643 68.4266 24.3123C68.5386 25.3603 68.5013 27.4537 68.5013 29.2857C68.5013 30.259 68.4266 30.5204 68.0533 30.6324C67.8666 30.707 67.456 30.819 66.9306 30.8564C66.7439 31.043 66.8186 31.7924 66.9306 31.979C67.64 31.979 68.464 31.9044 69.6986 31.9044C71.232 31.9044 72.2053 31.979 72.616 31.979C72.6906 31.9417 72.728 31.195 72.6533 31.0084ZM79.4613 21.619C78.152 21.619 77.3307 22.6297 77.3307 24.2003C77.3307 25.8083 78.04 27.6403 80.0613 27.6403C80.3973 27.6403 81.0347 27.491 81.3333 27.155C81.8187 26.707 82.12 25.8083 82.12 24.8723C82.152 22.8537 81.144 21.619 79.4613 21.619ZM79.2747 32.5044C78.7893 32.5044 78.4507 32.6537 78.2267 32.7657C77.1787 33.4377 76.7307 34.0751 76.7307 34.8217C76.7307 35.5311 76.992 36.0937 77.592 36.5791C78.3013 37.1764 79.2747 37.4777 80.5467 37.4777C83.0534 37.4777 84.1734 36.1311 84.1734 34.7844C84.1734 33.8484 83.688 33.251 82.752 32.8777C82.04 32.6537 80.808 32.5044 79.2747 32.5044ZM79.4613 38.8991C77.9653 38.8991 76.88 38.5631 75.9467 37.8511C75.048 37.1791 74.6373 36.1311 74.6373 35.4191C74.6373 35.2324 74.6746 34.6697 75.1227 34.1844C75.384 33.8857 75.984 33.323 77.4053 32.3524C77.4427 32.315 77.48 32.315 77.48 32.2404C77.48 32.1657 77.4427 32.1284 77.368 32.1284C76.208 31.6804 75.872 30.9684 75.76 30.595V30.5577C75.7227 30.4084 75.6853 30.259 75.9093 30.1097C76.096 29.9977 76.32 29.8484 76.5813 29.6617C76.992 29.4004 77.4427 29.139 77.704 28.9124C77.7413 28.875 77.7413 28.8004 77.7413 28.763C77.7413 28.7257 77.704 28.651 77.6293 28.651C75.9093 28.091 75.048 26.819 75.048 24.8723C75.048 23.6003 75.608 22.4777 76.6187 21.7683C77.2907 21.2457 79.0507 20.571 80.1707 20.571H80.2453C81.4054 20.6083 82.04 20.8323 82.9387 21.1683C83.424 21.355 83.912 21.4297 84.5467 21.4297C85.52 21.4297 85.9307 21.131 86.2667 20.795C86.304 20.8323 86.3414 20.9817 86.3787 21.2803C86.416 21.6163 86.304 22.067 86.0427 22.403C85.856 22.6643 85.408 22.8883 84.9574 22.8883H84.8454C84.3974 22.851 84.2107 22.7763 84.2107 22.7763L84.0987 22.8137C84.0614 22.851 84.0987 22.9257 84.136 23.0003L84.1734 23.0377C84.2107 23.2617 84.3227 23.9363 84.3227 24.0857C84.3227 26.1043 83.4987 27.003 82.64 27.6377C81.816 28.235 80.8453 28.6484 79.76 28.7604C79.7227 28.7604 79.648 28.7604 79.424 28.7977C79.312 28.7977 79.1253 28.835 79.088 28.835H79.1253C78.9387 28.8724 78.4533 29.1337 78.4533 29.5444C78.4533 29.9177 78.6773 30.3684 79.7253 30.443C79.9493 30.4804 80.1733 30.4804 80.3973 30.4804C81.8187 30.5924 83.5387 30.7044 84.3627 30.9657C85.4854 31.3764 86.1947 32.387 86.1947 33.5844C86.1947 35.4164 84.8854 37.0991 82.7174 38.1471C81.6667 38.6377 80.6187 38.8991 79.4613 38.8991ZM93.4854 21.7337C92.9627 21.7337 92.5121 21.8457 92.1387 22.107C91.1654 22.7043 90.6801 23.8643 90.6801 25.6217C90.6801 28.8377 92.2881 31.1204 94.6081 31.1204C95.2801 31.1204 95.8428 30.9337 96.2907 30.523C97.0001 29.9257 97.3761 28.7657 97.3761 27.083C97.4508 23.8643 95.8428 21.7337 93.4854 21.7337ZM93.9334 32.2804C89.7441 32.2804 88.248 29.2137 88.248 26.3337C88.248 24.315 89.072 22.7443 90.6801 21.659C91.8401 20.9497 93.2241 20.5363 94.4587 20.5363C97.6748 20.5363 99.9201 22.819 99.9201 26.147C99.9201 28.3924 99.0214 30.1497 97.3388 31.2324C96.5147 31.755 95.0934 32.2804 93.9334 32.2804ZM50.0639 21.7337C49.5412 21.7337 49.0905 21.8457 48.7172 22.107C47.7439 22.7043 47.2585 23.8643 47.2585 25.6217C47.2585 28.8377 48.8665 31.1204 51.1865 31.1204C51.8585 31.1204 52.4212 30.9337 52.8692 30.523C53.5786 29.9257 53.9546 28.7657 53.9546 27.083C53.9892 23.8643 52.4186 21.7337 50.0639 21.7337ZM50.4745 32.2804C46.2852 32.2804 44.7892 29.2137 44.7892 26.3337C44.7892 24.315 45.6132 22.7443 47.2212 21.659C48.3812 20.9497 49.7652 20.5363 50.9999 20.5363C54.2159 20.5363 56.4612 22.819 56.4612 26.147C56.4612 28.3924 55.5626 30.1497 53.8799 31.2324C53.0932 31.755 51.6719 32.2804 50.4745 32.2804ZM22.3491 32.0164C22.3117 31.9417 22.2371 31.7177 22.2744 31.4564C22.2744 31.2697 22.3117 31.1204 22.3491 31.083C22.8718 31.0084 23.1358 30.9337 23.4344 30.859C23.9198 30.747 24.1064 30.4484 24.1438 29.8484C24.2184 28.3524 24.2184 25.547 24.1811 23.603V23.5657C24.1811 23.3417 24.1811 23.0803 23.9198 22.8937C23.5091 22.6323 23.0584 22.4083 22.4237 22.259C22.1997 22.1843 22.0504 22.0723 22.0877 21.923C22.0877 21.7737 22.2371 21.587 22.5731 21.5497C23.3971 21.475 25.4904 20.9523 26.3518 20.5763C26.3891 20.6137 26.4638 20.763 26.4638 20.987L26.4264 21.2483C26.3891 21.5097 26.3891 21.8457 26.3891 22.147C26.3891 22.259 26.5011 22.3337 26.5758 22.3337C26.6131 22.3337 26.6878 22.2963 26.7251 22.2963C28.2958 21.0617 29.7171 20.6136 30.4665 20.6136C31.6638 20.6136 32.5971 21.1737 33.3091 22.371C33.3465 22.4457 33.4211 22.483 33.4958 22.483C33.5331 22.483 33.6078 22.4457 33.6451 22.4083C35.1038 21.2857 36.5625 20.651 37.4985 20.651C39.7812 20.651 41.1252 22.3337 41.1252 25.251C41.1252 26.075 41.1252 27.1203 41.0878 28.0937C41.0878 28.955 41.0505 29.739 41.0505 30.299C41.0505 30.411 41.2372 30.8217 41.4985 30.8964C41.8345 31.083 42.3225 31.1577 42.9198 31.2324H42.9572C42.9945 31.419 42.9198 32.0564 42.8078 32.1684C42.6585 32.1684 42.4345 32.1684 42.2105 32.131C41.7252 32.0937 41.0878 32.0937 40.3412 32.0937C38.8078 32.0937 38.0212 32.131 37.2745 32.1684C37.2371 31.9817 37.1998 31.3817 37.2745 31.2324C37.7225 31.1577 37.9465 31.083 38.2105 31.0084C38.6958 30.859 38.8078 30.635 38.8452 29.9977C38.8452 29.5124 38.9572 25.547 38.8078 24.5737C38.6585 23.6003 37.9092 22.443 36.3011 22.443C35.7038 22.443 34.7305 22.7043 33.7945 23.4163C33.7571 23.4537 33.6825 23.603 33.6825 23.6777V23.715C33.7945 24.2377 33.7945 24.8377 33.7945 25.7337V27.3417C33.7945 28.4644 33.7571 29.4724 33.7945 30.259C33.7945 30.7817 34.1305 30.931 34.3918 31.0084C34.5411 31.0457 34.6531 31.0457 34.7651 31.083C34.9891 31.1204 35.2131 31.195 35.5518 31.2697C35.5891 31.3817 35.5891 31.6804 35.5145 31.9417C35.4771 32.091 35.4398 32.1657 35.4025 32.203C34.5785 32.1657 33.7198 32.1657 32.4478 32.1657C32.0745 32.1657 31.4371 32.203 30.9145 32.203C30.4665 32.203 30.0531 32.2404 29.7918 32.2404C29.7544 32.203 29.7171 32.0164 29.7171 31.755C29.7171 31.531 29.7544 31.3444 29.8291 31.307C29.9411 31.2697 30.0531 31.2697 30.1651 31.2697C30.4638 31.2324 30.6878 31.1577 30.9518 31.1204C31.3625 31.0084 31.5118 30.7844 31.5491 30.2217C31.6238 28.987 31.6985 25.4723 31.5118 24.5737C31.2131 23.1523 30.3891 22.443 29.0798 22.443C28.3304 22.443 27.3598 22.8163 26.5731 23.4163C26.4611 23.5283 26.3491 23.7523 26.3491 23.9763V25.435C26.3491 27.1923 26.3491 29.4377 26.3864 30.371C26.4238 30.6697 26.4984 31.0057 27.0584 31.1204C27.1704 31.1577 27.3944 31.195 27.6184 31.2324L28.0664 31.307C28.1038 31.4564 28.1038 32.0564 27.9918 32.243C27.7304 32.243 27.4691 32.2057 27.0931 32.2057C26.5704 32.1684 25.8958 32.1684 25.1864 32.1684C24.3251 32.1684 23.6904 32.2057 23.2051 32.2057C22.9091 32.0164 22.6478 32.0164 22.3491 32.0164Z" fill="#442D22"></path><path d="M9.37043 37.9248L8.35976 37.5888C8.35976 37.5888 8.47176 32.4288 6.63975 32.0528C5.40508 30.6314 6.82642 -28.5369 11.2771 31.8661C11.2771 31.8661 9.74377 32.6154 9.48243 33.9221C9.18376 35.2341 9.37043 37.9248 9.37043 37.9248Z" fill="white"></path><path d="M9.37043 37.9248L8.35976 37.5888C8.35976 37.5888 8.47176 32.4288 6.63975 32.0528C5.40508 30.6314 6.82642 -28.5369 11.2771 31.8661C11.2771 31.8661 9.74377 32.6154 9.48243 33.9221C9.18376 35.2341 9.37043 37.9248 9.37043 37.9248Z" fill="#A6A385"></path><path d="M9.93298 32.9519C9.93298 32.9519 18.7597 27.1545 16.7037 15.0371C14.7223 6.24775 10.0076 3.36774 9.48498 2.24506C8.92497 1.45839 8.3623 0.0770569 8.3623 0.0770569L8.73564 24.5385C8.73564 24.5732 7.9863 32.0559 9.93298 32.9519Z" fill="white"></path><path d="M9.93298 32.9519C9.93298 32.9519 18.7597 27.1545 16.7037 15.0371C14.7223 6.24775 10.0076 3.36774 9.48498 2.24506C8.92497 1.45839 8.3623 0.0770569 8.3623 0.0770569L8.73564 24.5385C8.73564 24.5732 7.9863 32.0559 9.93298 32.9519Z" fill="#499D4A"></path><path d="M7.83673 33.2882C7.83673 33.2882 -0.467306 27.6401 0.020696 17.6534C0.508698 7.6667 6.34073 2.76802 7.50073 1.86934C8.25007 1.08267 8.25007 0.784004 8.32474 0C8.8474 1.12267 8.7354 16.5681 8.81007 18.4001C9.03407 25.4348 8.3994 31.9415 7.83673 33.2882Z" fill="white"></path><path d="M7.83673 33.2882C7.83673 33.2882 -0.467306 27.6401 0.020696 17.6534C0.508698 7.6667 6.34073 2.76802 7.50073 1.86934C8.25007 1.08267 8.25007 0.784004 8.32474 0C8.8474 1.12267 8.7354 16.5681 8.81007 18.4001C9.03407 25.4348 8.3994 31.9415 7.83673 33.2882Z" fill="#58AA50"></path></svg>