<svg xmlns="http://www.w3.org/2000/svg" width="123" height="64" viewBox="0 0 123 64" fill="none"><g id="MySQL logo" clip-path="url(#clip0_650_2789)"><path id="Vector" d="M0 57.9906H4.0482V42.0102L10.3152 55.9464C11.0544 57.6264 12.0672 58.23 14.052 58.23C16.0368 58.23 17.01 57.633 17.7504 55.9464L24.018 42.0102V57.9966H28.0668V42.0366C28.0668 40.4796 27.4428 39.7266 26.1588 39.3378C23.0838 38.3778 21.0204 39.2082 20.0868 41.2842L13.9368 55.038L7.98 41.2782C7.0848 39.2022 4.983 38.3718 1.908 39.3318C0.6228 39.7212 0 40.4742 0 42.0306V57.9906ZM31.4316 44.979H35.4786V53.787C35.4408 54.2658 35.6322 55.389 37.8498 55.4232C38.9814 55.4412 46.5822 55.4232 46.653 55.4232V44.9352H50.709C50.727 44.9352 50.7048 59.2356 50.7054 59.2968C50.7276 62.8236 46.329 63.5898 44.3022 63.6492H31.5198V60.9252L44.325 60.9246C46.9302 60.6486 46.623 59.3544 46.623 58.9182V57.8562H38.019C34.0158 57.8202 31.467 56.0724 31.4352 54.0624C31.4322 53.8824 31.5216 45.0654 31.4328 44.9784L31.4316 44.979Z" fill="#00618A"></path><path id="Vector_2" d="M53.8301 57.9904H65.4689C66.8309 57.9904 68.1551 57.7054 69.2069 57.2116C70.9589 56.4076 71.8151 55.3174 71.8151 53.89V50.932C71.8151 49.7638 70.8419 48.6742 68.9351 47.9476C67.9229 47.5576 66.6773 47.3506 65.4707 47.3506H60.5657C58.9313 47.3506 58.1525 46.8574 57.9581 45.7678C57.9191 45.6382 57.9191 45.5278 57.9191 45.4042V43.5622C57.9191 43.4584 57.9191 43.354 57.9581 43.2244C58.1525 42.394 58.5809 42.16 60.0209 42.0244C60.1379 42.0244 60.2933 41.998 60.4109 41.998H71.9717V39.2998H60.6053C58.9703 39.2998 58.1141 39.4036 57.3353 39.637C54.9197 40.39 53.8685 41.59 53.8685 43.666V46.0276C53.8685 47.8444 55.9325 49.4014 59.3957 49.7644C59.7857 49.7902 60.1745 49.816 60.5633 49.816H64.7675C64.9235 49.816 65.0795 49.816 65.1959 49.8424C66.4799 49.9462 67.0259 50.1796 67.4147 50.6464C67.6547 50.8864 67.7267 51.1144 67.7267 51.3664V53.728C67.7267 54.0136 67.5323 54.3772 67.1429 54.688C66.7925 55 66.2087 55.207 65.4299 55.2592C65.2739 55.2592 65.1575 55.285 65.0021 55.285H53.8301V57.9838V57.9904ZM97.0685 53.2936C97.0685 56.0704 99.1313 57.6274 103.296 57.9388C103.685 57.9689 104.074 57.9861 104.464 57.9904H115.013V55.2916H104.386C102.012 55.2916 101.116 54.6946 101.116 53.2672V39.3052H97.0679V53.2924L97.0685 53.2936ZM74.3975 53.434V43.813C74.3975 41.3686 76.1135 39.886 79.5071 39.418C79.869 39.3663 80.2341 39.3402 80.5997 39.34H88.2839C88.6624 39.3402 89.0405 39.3663 89.4155 39.418C92.8091 39.886 94.5251 41.368 94.5251 43.813V53.434C94.5251 55.417 93.7961 56.4784 92.1161 57.1702L96.1037 60.7702H91.4033L88.1771 57.8578L84.9293 58.0636H80.5997C79.8587 58.0636 79.0787 57.9592 78.2201 57.7252C75.6401 57.0232 74.3975 55.6708 74.3975 53.434ZM78.7673 53.194C78.7673 53.3242 78.8063 53.4538 78.8453 53.6104C79.0853 54.7288 80.1323 55.3528 81.7253 55.3528H85.4033L82.0253 52.303H86.7257L89.6657 54.9628C90.2087 54.6736 90.5657 54.2308 90.6857 53.6626C90.7247 53.533 90.7247 53.4028 90.7247 53.2726V44.0476C90.7247 43.9438 90.7247 43.8076 90.6857 43.6834C90.4457 42.6436 89.3981 42.0454 87.8381 42.0454H81.7325C79.9325 42.0454 78.7685 42.8254 78.7685 44.0476V53.2012L78.7673 53.194Z" fill="#E48E00"></path><g id="Group"><path id="Vector_3" d="M118.574 34.8285C116.086 34.7613 114.185 34.9923 112.56 35.6775C112.098 35.8725 111.362 35.8773 111.286 36.4563C111.54 36.7221 111.58 37.1193 111.781 37.4463C112.169 38.0745 112.825 38.9163 113.409 39.3567C114.047 39.8385 114.705 40.3545 115.391 40.7727C116.609 41.5155 117.968 41.9397 119.141 42.6831C119.832 43.1211 120.518 43.6731 121.193 44.1687C121.526 44.4135 121.751 44.7939 122.183 44.9469V44.8761C121.955 44.5863 121.897 44.1879 121.688 43.8861L120.768 42.9663C119.868 41.7663 118.727 40.7241 117.513 39.8523C116.545 39.1575 114.379 38.2191 113.975 37.0923L113.904 37.0215C114.59 36.9435 115.394 36.6957 116.028 36.5265C117.092 36.2415 118.043 36.3147 119.142 36.0315L120.628 35.6067V35.3235C120.073 34.7535 119.677 33.9993 119.071 33.4839C117.487 32.1339 115.757 30.7869 113.977 29.6619C112.99 29.0379 111.769 28.6335 110.722 28.1049C110.37 27.9273 109.751 27.8349 109.519 27.5385C108.97 26.8377 108.67 25.9485 108.246 25.1385C107.358 23.4285 106.486 21.5601 105.698 19.7607C105.161 18.5337 104.81 17.3235 104.142 16.2225C100.929 10.9401 97.47 7.75168 92.1132 4.61848C90.9732 3.95248 89.601 3.68848 88.1502 3.34468L85.815 3.20308C85.3398 3.00508 84.8454 2.42308 84.399 2.14108C82.6242 1.01908 78.072 -1.41872 76.7574 1.78108C75.9276 3.80488 77.9976 5.77948 78.7386 6.80548C79.2582 7.52548 79.9242 8.33128 80.295 9.14068C80.5392 9.67228 80.5818 10.2057 80.7906 10.7685C81.3048 12.1485 81.7524 13.6623 82.4178 14.9433C82.7538 15.5913 83.1246 16.2741 83.55 16.8537C83.811 17.2095 84.258 17.3661 84.3282 17.9157C83.8914 18.5277 83.8662 19.4757 83.6202 20.2509C82.5144 23.7381 82.9314 28.0719 84.54 30.6531C85.0338 31.4451 86.196 33.1443 87.795 32.4927C89.193 31.9227 88.875 30.1587 89.2812 28.6011C89.3712 28.2471 89.316 27.9891 89.4936 27.7521V27.8229L90.7674 30.3699C91.7094 31.8879 93.3834 33.4749 94.8006 34.5459C95.5356 35.1009 96.1206 36.0609 97.065 36.3855V36.3147H96.9942C96.81 36.0267 96.522 35.9085 96.2862 35.6787C95.7324 35.1357 95.1162 34.4607 94.6584 33.8391C93.3684 32.0883 92.2296 30.1731 91.1916 28.1781C90.696 27.2259 90.2646 26.1753 89.8476 25.2063C89.6868 24.8325 89.6886 24.2679 89.3526 24.0741C88.8948 24.7845 88.2204 25.3581 87.8664 26.1969C87.3 27.5373 87.2268 29.1717 87.0174 30.8673C86.8932 30.9117 86.9484 30.8811 86.8758 30.9381C85.8906 30.7005 85.5438 29.6859 85.1778 28.8153C84.2514 26.6133 84.0798 23.0697 84.8946 20.5365C85.1046 19.8813 86.0586 17.8161 85.6728 17.2107C85.4886 16.6065 84.8808 16.2507 84.5406 15.7947C84.1206 15.2247 83.6994 14.4723 83.4084 13.8135C82.65 12.0975 82.296 10.1715 81.498 8.43568C81.1164 7.60648 80.472 6.76768 79.9416 6.03568C79.3548 5.21968 78.6978 4.61728 78.2436 3.63568C78.0816 3.28468 77.862 2.72368 78.102 2.36188C78.1249 2.25793 78.1771 2.1627 78.2524 2.08743C78.3276 2.01216 78.4229 1.95999 78.5268 1.93708C78.9372 1.62088 80.0808 2.04208 80.508 2.22028C81.642 2.69188 82.59 3.14068 83.5512 3.77728C84.0132 4.07728 84.4794 4.67488 85.0368 4.83928H85.6728C86.6688 5.06848 87.7848 4.91128 88.7148 5.19328C90.36 5.69308 91.8336 6.47128 93.1728 7.31608C97.2516 9.89128 100.586 13.5573 102.867 17.9361C103.234 18.6399 103.393 19.3125 103.716 20.0589C104.368 21.5589 105.19 23.1147 105.839 24.5871C106.487 26.0571 107.117 27.5391 108.032 28.7619C108.514 29.4039 110.372 29.7495 111.217 30.1059C111.809 30.3561 112.778 30.6171 113.339 30.9549C114.41 31.6011 115.448 32.3709 116.453 33.0789C116.956 33.4329 118.499 34.2087 118.576 34.8477L118.574 34.8285Z" fill="#00618A"></path><path id="Vector_4" fill-rule="evenodd" clip-rule="evenodd" d="M86.9457 7.86933C86.4267 7.85973 86.0601 7.92573 85.6719 8.01093V8.08173H85.7427C85.9899 8.59053 86.4267 8.91753 86.7327 9.35553L87.4407 10.8411L87.5115 10.7703C87.9495 10.4613 88.1505 9.96753 88.1475 9.21333C87.9717 9.02853 87.9459 8.79693 87.7935 8.57613C87.5913 8.28213 87.1935 8.11533 86.9445 7.86813L86.9457 7.86933Z" fill="#00618A"></path></g><path id="Vector_5" fill-rule="evenodd" clip-rule="evenodd" d="M116.913 55.2156C116.913 56.9976 118.321 58.1988 119.896 58.1988C121.471 58.1988 122.879 56.9976 122.879 55.2156C122.879 53.4336 121.471 52.2324 119.896 52.2324C118.321 52.2324 116.913 53.4336 116.913 55.2156ZM122.211 55.2156C122.211 56.568 121.177 57.5784 119.895 57.5784C118.599 57.5784 117.579 56.568 117.579 55.2156C117.579 53.8632 118.598 52.8528 119.895 52.8528C121.176 52.8528 122.211 53.8632 122.211 55.2156ZM120.699 56.9184H121.367L120.389 55.4232C120.914 55.3674 121.311 55.1124 121.311 54.492C121.311 53.7996 120.873 53.514 120.031 53.514H118.702V56.919H119.275V55.4472H119.807L120.698 56.919L120.699 56.9184ZM119.275 54.9684V53.9904H119.935C120.277 53.9904 120.691 54.054 120.691 54.4524C120.691 54.9294 120.317 54.9696 119.887 54.9696H119.275V54.9684Z" fill="#E48E00"></path></g><defs><clipPath id="clip0_650_2789"><rect width="122.88" height="63.84" fill="white"></rect></clipPath></defs></svg>
