<svg xmlns="http://www.w3.org/2000/svg" width="63" height="62" viewBox="0 0 63 62" fill="none"><path id="Vector" fill-rule="evenodd" clip-rule="evenodd" d="M36.7498 0.0145748C36.3053 0.0145748 35.8899 0.109311 35.5109 0.233197C36.3235 0.779751 36.768 1.49027 36.9939 2.30282C37.0085 2.41213 37.0413 2.49229 37.0559 2.60524C37.0704 2.7182 37.0923 2.79471 37.0923 2.89674C37.1579 4.29956 36.7279 4.47446 36.4219 5.30158C35.9591 6.36918 36.0866 7.51694 36.6405 8.43515C36.6912 8.55808 36.7547 8.67532 36.83 8.78495C36.2251 4.75502 39.5882 4.14653 40.2077 2.88945C40.255 1.78905 39.3478 1.05667 38.6299 0.546554C37.9449 0.131173 37.3182 0 36.7498 0V0.0145748ZM41.8145 0.925499C41.749 1.28987 41.8 1.19513 41.7781 1.38825L41.7417 1.80363L41.6324 2.18622C41.5959 2.31375 41.5522 2.44128 41.5048 2.56881L41.3299 2.93317C41.2826 2.99876 41.2498 3.0607 41.2024 3.12265L41.1077 3.26839L40.8672 3.5854C40.7724 3.68013 40.6923 3.79309 40.5757 3.87689C40.4591 3.9607 40.3862 4.06636 40.2733 4.14653C39.938 4.40158 39.5554 4.59106 39.2057 4.83154C39.0963 4.9117 38.987 4.97729 38.8887 5.07202C38.7808 5.14832 38.6796 5.23365 38.5862 5.32708C38.4769 5.42182 38.3968 5.51655 38.2947 5.62951C38.1927 5.74246 38.1198 5.8372 38.0542 5.94651L37.8356 6.28173L37.6607 6.6461L37.5332 7.01047L37.4239 7.41128C37.4093 7.47686 37.4093 7.55702 37.3875 7.61897C37.3656 7.68091 37.3729 7.7465 37.351 7.80844L37.3364 8.20925C37.3364 8.30398 37.3364 8.39872 37.351 8.50074C37.351 8.62827 37.3656 8.7558 37.3984 8.90155C37.4312 9.04729 37.4457 9.15661 37.4785 9.28413L37.6061 9.66672C37.6425 9.74688 37.6862 9.82705 37.7154 9.88535L34.0498 8.4643L32.2025 7.99062L31.1968 7.75014C30.2377 7.55897 29.2697 7.41548 28.2964 7.32018C28.26 7.32018 28.2491 7.30561 28.2163 7.30561L25.3633 7.15986L23.2754 7.24002C22.3025 7.30561 21.3297 7.42949 20.3605 7.58982L19.6427 7.71735L18.207 8.03435L17.4892 8.22382L16.8042 8.52625L16.2795 8.76673C16.2431 8.78131 16.2139 8.78131 16.1994 8.80317L15.7548 9.02179C15.7075 9.03636 15.6747 9.05823 15.6455 9.06916L15.15 9.32422C15.0407 9.37158 14.9314 9.43353 14.833 9.48454C14.7856 9.52098 14.7237 9.54648 14.6872 9.5647L14.2718 9.80518C14.1399 9.87809 14.0122 9.95838 13.8893 10.0457L13.5723 10.2643L13.2225 10.5193L12.9528 10.738C12.9164 10.7525 12.8872 10.7853 12.8581 10.8036L12.6176 11.0112C12.603 11.0477 12.5702 11.0586 12.552 11.0768L12.2605 11.3465L11.9435 11.6489L11.6739 11.9404C11.6375 11.9768 11.5937 12.006 11.5646 12.0351C11.479 12.135 11.389 12.231 11.2949 12.323C11.2804 12.3594 11.2476 12.3703 11.2294 12.4031L10.865 12.7857L10.0051 13.6128C9.71358 13.8679 9.4148 14.1084 9.11237 14.3124L8.15772 14.9173C7.84072 15.0922 7.50186 15.2525 7.15206 15.391C6.81346 15.535 6.46812 15.6627 6.11726 15.7736C5.44682 15.9193 4.7618 16.1889 4.17152 16.2363C4.04399 16.2363 3.90189 16.2727 3.77072 16.2837L3.36991 16.3784L2.98732 16.5242C2.85687 16.5758 2.72917 16.6342 2.60473 16.6991C2.49542 16.7792 2.36425 16.8448 2.25494 16.9177C2.14563 16.9906 2.03632 17.0926 1.93794 17.1873C1.83956 17.282 1.71932 17.3768 1.62094 17.4788L1.3513 17.7958C1.27114 17.9233 1.1764 18.0363 1.11082 18.1602C1.02743 18.277 0.953119 18.4 0.888553 18.5282L0.713655 18.9436L0.567907 19.359L0.487746 19.7415C0.440378 19.931 0.440378 20.1241 0.42216 20.2152C0.403941 20.3063 0.42216 20.4266 0.42216 20.5395C0.419064 20.6091 0.423954 20.6788 0.436734 20.7472C0.451309 20.8565 0.473171 20.9549 0.502321 21.0496L0.611632 21.3411C0.659 21.4504 0.720943 21.5488 0.786529 21.6436L0.99422 21.935L1.26385 22.1901C1.35726 22.2835 1.45843 22.3689 1.56628 22.4452C1.94887 22.7804 2.03996 22.8897 2.53915 23.1448C2.61931 23.1921 2.69947 23.2249 2.79421 23.2723C2.84157 23.3197 2.84157 23.3342 2.85979 23.367C2.87437 23.4945 2.90716 23.6221 2.93995 23.7496C2.97038 23.8808 3.01308 24.0089 3.06748 24.1322L3.19501 24.4237C3.20959 24.4601 3.23145 24.4893 3.24238 24.5039L3.43185 24.8536L3.67234 25.1889L3.94197 25.4913C4.03671 25.586 4.13144 25.6662 4.2444 25.7609L4.5614 26.0014C4.67071 26.0816 4.78002 26.1472 4.91119 26.2091C5.02907 26.277 5.15213 26.3355 5.27921 26.384C5.37394 26.4314 5.4869 26.4642 5.59621 26.4933C5.70552 26.5225 5.8039 26.5589 5.86584 26.5735C5.81847 27.4334 5.80025 28.2496 5.93143 28.5338C6.07717 28.8508 6.77676 27.8779 7.47635 26.7666C7.38162 27.867 7.31603 29.1569 7.47635 29.5358C7.63668 29.9147 8.6059 28.6905 9.43666 27.3204C20.7321 24.7079 31.0438 32.5163 32.126 43.5422C31.9183 41.8223 29.8013 40.864 28.8284 41.1009C28.3547 42.2814 27.5385 43.7972 26.2305 44.7336C26.3398 43.677 26.2924 42.5984 26.0701 41.5454C25.7137 43.0123 25.0395 44.383 24.0952 45.5608C22.5831 45.6701 21.071 44.9413 20.2694 43.8409C20.2038 43.7936 20.1892 43.6952 20.1418 43.6333L20.0143 43.298C19.9669 43.1887 19.9341 43.0794 19.9196 42.9628C19.905 42.8462 19.905 42.7442 19.905 42.613V42.3725C19.9196 42.2632 19.9524 42.1539 19.9852 42.0373L20.0945 41.7021C20.1601 41.5928 20.2038 41.4835 20.2839 41.3669C20.5536 40.6381 20.5536 39.9823 20.0653 39.6179C19.9706 39.5523 19.8758 39.5086 19.7629 39.4576C19.6973 39.443 19.6171 39.4102 19.5552 39.392L19.4277 39.3446L19.0925 39.2645C18.9835 39.2329 18.8706 39.217 18.7572 39.2171C18.6415 39.1982 18.5246 39.1873 18.4074 39.1843C18.3273 39.1843 18.2471 39.1989 18.167 39.1989C18.0487 39.1979 17.9309 39.2138 17.8172 39.2462L17.4819 39.3082L17.1467 39.4175L16.8297 39.5632L16.5273 39.7236C12.8107 42.1466 15.0334 47.8126 17.5621 49.4595C16.6075 49.6344 15.6309 49.8421 15.365 50.0498C16.0208 50.4943 16.735 50.8514 17.4856 51.1502L20.0653 51.8789C21.388 52.1704 22.7252 52.2615 24.0807 52.1814C27.5237 51.9292 30.7776 50.5093 33.304 48.1565C35.8304 45.8038 37.4779 42.659 37.9741 39.2426L38.0688 39.658L38.2146 40.5507L38.2802 40.9806L38.3166 41.4543L38.353 41.979V42.2341C38.353 42.3142 38.3676 42.409 38.3676 42.4891C38.3676 42.5693 38.353 42.6786 38.353 42.7806V42.9992C38.353 43.1086 38.3385 43.2069 38.3385 43.3162C38.3385 43.3782 38.3385 43.4438 38.3239 43.5239L38.3093 43.8737C38.2947 43.9211 38.2947 43.9685 38.2947 44.0195L38.2474 44.3839C38.2474 44.4312 38.2474 44.4786 38.2328 44.5296L38.1708 44.9923V45.0288L38.0761 45.4733L37.9814 45.947L37.8538 46.4425L37.7263 46.9381L37.566 47.4482L37.2162 48.3737L37.0267 48.8364L36.8081 49.281C36.7935 49.3283 36.7717 49.3611 36.7607 49.3903C35.6931 51.5255 34.1628 53.3619 32.2498 54.7902C32.1223 54.8704 31.9948 54.9651 31.8673 55.0599C31.8308 55.0963 31.7871 55.1072 31.7579 55.14L31.4081 55.3805L31.4555 55.4753H31.4701L32.1405 55.3805H32.1551L33.394 55.1619C33.5033 55.1473 33.6344 55.1145 33.7438 55.0817L33.9624 55.0344L34.2976 54.9724L34.5891 54.8923C36.1814 54.5097 37.7227 53.9813 39.2093 53.3619C36.6769 56.8234 33.281 59.6072 29.313 61.44C31.1458 61.3125 32.9786 61.01 34.7421 60.4999C41.1623 58.6052 46.5659 54.2874 49.8015 48.4684C49.1454 52.1578 47.6822 55.6565 45.5165 58.7145C47.0615 57.6943 48.4789 56.5174 49.7724 55.1801C53.3387 51.4563 55.6796 46.73 56.4804 41.6365C57.027 44.1507 57.18 46.7523 56.9432 49.3174C68.4463 33.2706 57.8978 16.6335 53.4817 12.2537C53.4671 12.2173 53.4452 12.2064 53.4452 12.1736C53.4088 12.3631 53.3978 12.5562 53.3833 12.7456C53.3359 13.11 53.2885 13.4635 53.2229 13.8132C53.1574 14.163 53.048 14.5128 52.9533 14.8699C52.8586 15.227 52.7128 15.5549 52.5707 15.8902C52.4286 16.2254 52.2683 16.546 52.097 16.863C51.9214 17.1747 51.7305 17.4775 51.525 17.7703C51.3173 18.0727 51.095 18.3606 50.8691 18.6302C50.6313 18.9076 50.3808 19.1738 50.1185 19.4282C49.9582 19.5739 49.8161 19.6978 49.6558 19.829L49.2914 20.146C49.0068 20.3717 48.7087 20.5798 48.3987 20.7691C48.0944 20.9653 47.7807 21.1465 47.4586 21.312C47.1234 21.4723 46.7882 21.6144 46.453 21.7565C46.1136 21.8849 45.7683 21.9968 45.4182 22.0917C45.0684 22.1865 44.7003 22.2666 44.3505 22.3322C44.0008 22.3978 43.6218 22.4269 43.2684 22.4597C43.0133 22.4743 42.7583 22.4962 42.5396 22.4962C42.1753 22.4962 41.8109 22.4597 41.4575 22.4306C41.104 22.4014 40.7287 22.3504 40.3716 22.2703C40.01 22.2049 39.6533 22.1148 39.304 22.0006H39.2895C39.6393 21.9642 39.989 21.935 40.3461 21.8731C40.7032 21.8112 41.0639 21.7274 41.4137 21.6326C41.7635 21.5379 42.1133 21.4249 42.4485 21.2974C42.7838 21.1699 43.1336 21.0059 43.4542 20.8529C43.7808 20.6936 44.0994 20.5185 44.4088 20.3282C44.7113 20.1205 45.0137 19.9128 45.3016 19.6905C45.5871 19.4684 45.8584 19.2286 46.1141 18.9727C46.3837 18.7322 46.6242 18.4626 46.8647 18.193C47.1052 17.9233 47.3274 17.6209 47.5351 17.3331C47.5716 17.2857 47.6007 17.2237 47.6299 17.1727L48.0926 16.444C48.2675 16.127 48.4278 15.8064 48.5663 15.4711C48.7048 15.1359 48.8359 14.8007 48.9489 14.4509C49.0618 14.1011 49.1384 13.7659 49.2185 13.4161C49.2987 13.0663 49.3461 12.6983 49.3788 12.3485C49.4116 11.9987 49.4408 11.6197 49.4408 11.2663C49.4408 11.0112 49.4262 10.7562 49.4044 10.5376C49.3679 10.1732 49.3242 9.81976 49.2768 9.46996C49.2134 9.11053 49.1332 8.75427 49.0363 8.40236C48.927 8.06714 48.8177 7.71735 48.6866 7.38213C48.5554 7.04691 48.3951 6.71169 48.242 6.39833C48.089 6.08497 47.8922 5.76068 47.6955 5.45826C47.4987 5.15583 47.2801 4.86798 47.0578 4.58377L46.3291 3.77122C46.1945 3.63486 46.056 3.50242 45.9137 3.37406C45.1997 2.81914 44.4605 2.29754 43.6983 1.81092C43.589 1.74897 43.4906 1.70161 43.3813 1.65059C42.8566 1.31537 42.3611 1.14048 41.8692 0.980154L41.8145 0.925499Z" fill="#EA2845"></path></svg>