<svg xmlns="http://www.w3.org/2000/svg" width="102" height="62" viewBox="0 0 102 62" fill="none"><g id="Node.js logo" clip-path="url(#clip0_623_344)"><g id="Group"><path id="Vector" d="M50.3718 61.7826C50.0328 61.7826 49.7162 61.6922 49.4221 61.5339L46.4144 59.7474C45.9621 59.4985 46.1883 59.4081 46.324 59.3629C46.9345 59.1594 47.0476 59.114 47.6808 58.7524C47.7487 58.707 47.8393 58.7297 47.907 58.7749L50.2137 60.1544C50.3041 60.1996 50.4172 60.1996 50.4849 60.1544L59.5082 54.9304C59.5986 54.8852 59.644 54.7946 59.644 54.6817V44.2565C59.644 44.1432 59.5986 44.053 59.5082 44.0076L50.4849 38.8064C50.3945 38.761 50.2814 38.761 50.2137 38.8064L41.1905 44.0076C41.1001 44.0528 41.0547 44.1659 41.0547 44.2563V54.6816C41.0547 54.7721 41.1001 54.885 41.1905 54.9304L43.6555 56.3551C44.9898 57.0335 45.8265 56.242 45.8265 55.4505V45.1609C45.8265 45.0253 45.9396 44.8895 46.0978 44.8895H47.2511C47.3869 44.8895 47.5225 45.0026 47.5225 45.1609V55.4505C47.5225 57.237 46.55 58.2774 44.854 58.2774C44.3339 58.2774 43.9269 58.2774 42.7734 57.7119L40.399 56.3551C39.811 56.016 39.4492 55.3826 39.4492 54.7042V44.279C39.4492 43.6006 39.811 42.9673 40.399 42.6282L49.4221 37.4042C49.9875 37.0876 50.7565 37.0876 51.3218 37.4042L60.3449 42.6282C60.9329 42.9673 61.2949 43.6006 61.2949 44.279V54.7042C61.2949 55.3826 60.9329 56.016 60.3449 56.3551L51.3218 61.5791C51.0277 61.7149 50.6884 61.7826 50.3718 61.7826ZM53.1535 54.6138C49.1961 54.6138 48.3819 52.8047 48.3819 51.2669C48.3819 51.1311 48.495 50.9955 48.6533 50.9955H49.8293C49.9649 50.9955 50.0779 51.0859 50.0779 51.2217C50.2589 52.4202 50.779 53.0082 53.1762 53.0082C55.0757 53.0082 55.8901 52.5785 55.8901 51.5608C55.8901 50.9728 55.6637 50.5434 52.7013 50.2493C50.2362 50.0004 48.6985 49.4578 48.6985 47.4903C48.6985 45.6585 50.2364 44.5729 52.8144 44.5729C55.7089 44.5729 57.1338 45.5681 57.3148 47.7388C57.3148 47.8069 57.2921 47.8746 57.2469 47.9425C57.2015 47.9877 57.1338 48.0329 57.0659 48.0329H55.8899C55.7768 48.0329 55.6637 47.9425 55.6412 47.8294C55.3698 46.5858 54.6687 46.1786 52.8144 46.1786C50.7338 46.1786 50.4849 46.9023 50.4849 47.4449C50.4849 48.1008 50.779 48.3043 53.5832 48.6661C56.3648 49.0281 57.6765 49.5482 57.6765 51.4929C57.6539 53.4831 56.0257 54.6138 53.1535 54.6138Z" fill="#539E43"></path><path id="Vector_2" d="M22.3754 21.0082C22.3754 20.6012 22.1493 20.2165 21.7875 20.013L12.1989 14.4952C12.0404 14.4046 11.8596 14.3594 11.6788 14.3367H11.5882C11.4074 14.3367 11.2264 14.4046 11.0681 14.4952L1.47959 20.013C1.1176 20.2165 0.891602 20.601 0.891602 21.0082L0.914299 35.8432C0.914299 36.0467 1.0274 36.2502 1.20819 36.3408C1.38919 36.4539 1.61518 36.4539 1.77368 36.3408L7.47253 33.0843C7.83432 32.8808 8.06052 32.4963 8.06052 32.0893V25.1466C8.06052 24.7396 8.28651 24.3551 8.6485 24.1516L11.0681 22.7495C11.2491 22.6364 11.4526 22.591 11.6561 22.591C11.8596 22.591 12.0631 22.6364 12.2216 22.7495L14.6412 24.1516C15.0032 24.3551 15.2292 24.7394 15.2292 25.1466V32.0893C15.2292 32.4963 15.4554 32.8808 15.8172 33.0843L21.5161 36.3408C21.6971 36.4539 21.9231 36.4539 22.1041 36.3408C22.285 36.2502 22.3981 36.0467 22.3981 35.8432L22.3754 21.0082ZM68.4639 0.587233C68.2831 0.496638 68.0569 0.496638 67.8984 0.587233C67.7176 0.70033 67.6045 0.881128 67.6045 1.08462V15.7842C67.6045 15.9198 67.5368 16.0554 67.401 16.146C67.2654 16.2137 67.1296 16.2137 66.994 16.146L64.5969 14.7666C64.4211 14.6665 64.2224 14.6139 64.0201 14.6139C63.8179 14.6139 63.6191 14.6665 63.4434 14.7666L53.8548 20.3071C53.4931 20.5106 53.2669 20.8951 53.2669 21.3021V32.3605C53.2669 32.7675 53.4931 33.1522 53.8548 33.3557L63.4434 38.8962C63.6191 38.9963 63.8179 39.0489 64.0201 39.0489C64.2224 39.0489 64.4211 38.9963 64.5969 38.8962L74.1854 33.3557C74.5472 33.1522 74.7734 32.7677 74.7734 32.3605V4.79352C74.7734 4.36384 74.5472 3.97954 74.1854 3.77585L68.4639 0.587233ZM67.582 28.7197C67.582 28.8328 67.5368 28.9232 67.4462 28.9684L64.1672 30.868C64.1214 30.8903 64.0711 30.9019 64.0201 30.9019C63.9692 30.9019 63.9189 30.8903 63.8731 30.868L60.5941 28.9684C60.5035 28.9232 60.4583 28.8101 60.4583 28.7197V24.9204C60.4583 24.8073 60.5035 24.7169 60.5941 24.6717L63.8731 22.772C63.9189 22.7496 63.9692 22.738 64.0201 22.738C64.0711 22.738 64.1214 22.7496 64.1672 22.772L67.4462 24.6717C67.5368 24.7167 67.582 24.83 67.582 24.9204V28.7197ZM100.373 24.83C100.735 24.6265 100.938 24.242 100.938 23.8348V21.1438C100.938 20.7368 100.712 20.3523 100.373 20.1488L90.8523 14.631C90.6766 14.5309 90.4779 14.4783 90.2757 14.4783C90.0735 14.4783 89.8747 14.5309 89.699 14.631L80.1105 20.1713C79.7485 20.3748 79.5225 20.7593 79.5225 21.1665V32.2249C79.5225 32.6319 79.7485 33.0164 80.1105 33.2199L89.6311 38.6474C89.9931 38.8508 90.4226 38.8508 90.7619 38.6474L96.5285 35.4364C96.7094 35.3458 96.8225 35.1423 96.8225 34.9388C96.8225 34.7353 96.7094 34.5319 96.5285 34.4413L86.8947 28.9007C86.7139 28.7878 86.6008 28.6068 86.6008 28.4033V24.9433C86.6008 24.7398 86.7139 24.5363 86.8947 24.4457L89.9025 22.727C89.9906 22.6716 90.0925 22.6422 90.1965 22.6422C90.3005 22.6422 90.4025 22.6716 90.4905 22.727L93.4981 24.4457C93.6791 24.5588 93.7922 24.7396 93.7922 24.9433V27.657C93.7922 27.8605 93.9053 28.064 94.0861 28.1544C94.2671 28.2675 94.4931 28.2675 94.6741 28.1544L100.373 24.83Z" fill="#333333"></path><path id="Vector_3" d="M90.1285 24.31C90.1621 24.2879 90.2014 24.2761 90.2415 24.2761C90.2817 24.2761 90.321 24.2879 90.3545 24.31L92.1864 25.3729C92.2543 25.4179 92.2995 25.4858 92.2995 25.5764V27.7021C92.2995 27.7925 92.2543 27.8604 92.1864 27.9056L90.3545 28.9685C90.321 28.9906 90.2817 29.0023 90.2415 29.0023C90.2014 29.0023 90.1621 28.9906 90.1285 28.9685L88.2967 27.9056C88.2288 27.8604 88.1836 27.7925 88.1836 27.7021V25.5764C88.1836 25.4858 88.2288 25.4179 88.2967 25.3729L90.1285 24.31Z" fill="#539E43"></path><g id="Group_2"><path id="Vector_4" d="M38.4093 14.6758C38.2336 14.5758 38.0349 14.5232 37.8327 14.5232C37.6305 14.5232 37.4318 14.5758 37.2561 14.6758L27.7354 20.1708C27.3734 20.3743 27.1699 20.7588 27.1699 21.1658V32.1792C27.1699 32.5862 27.3961 32.9707 27.7354 33.1742L37.2561 38.6695C37.4318 38.7695 37.6305 38.8221 37.8327 38.8221C38.0349 38.8221 38.2336 38.7695 38.4093 38.6695L47.9302 33.1742C48.292 32.9707 48.4957 32.5862 48.4957 32.1792V21.166C48.4957 20.759 48.2693 20.3745 47.9302 20.171L38.4093 14.6758Z" fill="url(#paint0_linear_623_344)"></path></g></g></g><defs><linearGradient id="paint0_linear_623_344" x1="1481.33" y1="439.439" x2="437.773" y2="2079.17" gradientUnits="userSpaceOnUse"><stop stop-color="#41873F"></stop><stop offset="0.3288" stop-color="#418B3D"></stop><stop offset="0.6352" stop-color="#419637"></stop><stop offset="0.9319" stop-color="#3FA92D"></stop><stop offset="1" stop-color="#3FAE2A"></stop></linearGradient><clipPath id="clip0_623_344"><rect width="100.196" height="61.44" fill="white" transform="translate(0.839844 0.519531)"></rect></clipPath></defs></svg>