<svg xmlns="http://www.w3.org/2000/svg" width="62" height="62" viewBox="0 0 62 62" fill="none"><g id="Python logo" clip-path="url(#clip0_623_370)"><g id="Group"><path id="Vector" d="M16.0196 8.47779C16.0196 4.34279 17.1537 2.09333 23.4154 1.02217C27.6666 0.293692 33.1174 0.202633 38.2019 1.02217C42.2178 1.6702 45.5978 4.59472 45.5978 8.47779V22.12C45.5978 26.1211 42.3162 29.3987 38.2019 29.3987H23.4154C18.3971 29.3987 14.1676 33.5819 14.1676 38.3112V44.8566H9.08349C4.78294 44.8566 2.27905 41.8249 1.2272 37.5828C-0.191622 31.8837 -0.131392 28.4881 1.2272 23.03C2.4051 18.2685 6.16886 15.7562 10.4697 15.7562H30.8113V13.935H16.0193V8.4775L16.0196 8.47779Z" fill="url(#paint0_linear_623_370)"></path><path id="Vector_2" d="M45.5977 52.1354C45.5977 56.2704 41.9271 58.3647 38.2019 59.4092C32.5974 60.9839 28.0994 60.7429 23.4154 59.4092C19.5036 58.2952 16.0195 56.0187 16.0195 52.1354V38.4932C16.0195 34.567 19.367 31.2145 23.4154 31.2145H38.2019C43.1271 31.2145 47.4497 27.0531 47.4497 22.1198V15.7566H52.9939C57.3001 15.7566 59.3274 18.8845 60.3898 23.0304C61.8689 28.7884 61.9347 33.0946 60.3898 37.5832C58.8943 41.9431 57.2945 44.857 52.9939 44.857H30.8113V46.6782H45.5977V52.1354Z" fill="url(#paint1_linear_623_370)"></path><path id="Vector_3" d="M19.7178 7.57235C19.7178 6.06198 20.9559 4.84058 22.4902 4.84058C24.0186 4.84058 25.2627 6.06168 25.2627 7.57235C25.2627 9.07787 24.0189 10.2987 22.4902 10.2987C20.9565 10.2987 19.7178 9.07756 19.7178 7.57235ZM36.3555 53.0407C36.3555 51.5351 37.5992 50.3144 39.128 50.3144C40.6617 50.3144 41.9004 51.5355 41.9004 53.0407C41.9004 54.551 40.6623 55.7724 39.128 55.7724C37.5996 55.7724 36.3555 54.5513 36.3555 53.0407Z" fill="white"></path></g></g><defs><linearGradient id="paint0_linear_623_370" x1="45.5981" y1="17.7076" x2="0.186033" y2="17.3382" gradientUnits="userSpaceOnUse"><stop stop-color="#366A96"></stop><stop offset="1" stop-color="#3679B0"></stop></linearGradient><linearGradient id="paint1_linear_623_370" x1="61.5236" y1="38.1292" x2="-28.3706" y2="38.1292" gradientUnits="userSpaceOnUse"><stop stop-color="#FFC836"></stop><stop offset="1" stop-color="#FFE873"></stop></linearGradient><clipPath id="clip0_623_370"><rect width="61.44" height="61.44" fill="white" transform="translate(0.120117 -0.000244141)"></rect></clipPath></defs></svg>