<svg xmlns="http://www.w3.org/2000/svg" width="70" height="63" viewBox="0 0 70 63" fill="none"><g id="Group"><path id="Vector" d="M57.0179 20.7674C56.3016 20.5208 55.5592 20.2875 54.7949 20.0669C54.9206 19.5542 55.0359 19.0481 55.1384 18.5507C56.8211 10.3824 55.7209 3.80194 51.9639 1.63538C48.3614 -0.442061 42.4698 1.72401 36.5196 6.90231C35.9474 7.40025 35.3736 7.92745 34.8001 8.47996C34.4179 8.1144 34.0364 7.76114 33.6558 7.42323C27.4198 1.88626 21.1692 -0.447101 17.4159 1.72573C13.8168 3.80919 12.751 9.99542 14.2657 17.7366C14.412 18.4843 14.583 19.2479 14.7763 20.0242C13.8917 20.2753 13.0376 20.543 12.2205 20.8278C4.90941 23.3768 0.240234 27.3716 0.240234 31.5153C0.240234 35.795 5.2526 40.0875 12.8676 42.6903C13.4686 42.8957 14.0921 43.0899 14.7348 43.2743C14.5262 44.114 14.3447 44.9368 14.1924 45.7393C12.7482 53.3461 13.8761 59.3862 17.4655 61.4565C21.1731 63.5946 27.3955 61.3969 33.4545 56.1006C33.9334 55.6819 34.414 55.238 34.8955 54.7726C35.5195 55.3735 36.1426 55.9423 36.7623 56.4757C42.6312 61.5261 48.4277 63.5654 52.0138 61.4893C55.7177 59.3451 56.9214 52.8567 55.3586 44.9624C55.2393 44.3594 55.1004 43.7435 54.9444 43.1166C55.3814 42.9874 55.8104 42.8541 56.2287 42.7154C64.1452 40.0925 69.296 35.8521 69.296 31.5153C69.296 27.3566 64.4762 23.3349 57.0179 20.7674ZM55.3009 39.9152C54.9233 40.0402 54.5358 40.161 54.141 40.2782C53.2671 37.5114 52.0875 34.5694 50.6441 31.5297C52.0215 28.5625 53.1555 25.658 54.0049 22.9092C54.7114 23.1136 55.397 23.3292 56.0577 23.5568C62.448 25.7566 66.3459 29.0092 66.3459 31.5153C66.3459 34.1849 62.1362 37.6503 55.3009 39.9152ZM52.4647 45.5353C53.1557 49.026 53.2544 52.1821 52.7967 54.6493C52.3854 56.8663 51.5583 58.3443 50.5356 58.9363C48.3593 60.196 43.7054 58.5586 38.6863 54.2395C38.1109 53.7444 37.5313 53.2157 36.9499 52.6562C38.8957 50.5281 40.8404 48.0541 42.7384 45.3065C46.0767 45.0103 49.2307 44.526 52.0909 43.8648C52.2317 44.4331 52.3569 44.9904 52.4647 45.5353ZM23.7829 58.7186C21.6567 59.4695 19.9632 59.4911 18.9395 58.9008C16.7613 57.6445 15.8558 52.7948 17.091 46.2895C17.2325 45.5445 17.4009 44.7792 17.5949 43.997C20.4238 44.6225 23.5546 45.0726 26.901 45.3439C28.8117 48.0325 30.8126 50.5038 32.8289 52.6676C32.3884 53.0929 31.9496 53.4978 31.5132 53.8793C28.834 56.2213 26.1491 57.8829 23.7829 58.7186ZM13.8217 39.8989C10.4545 38.748 7.67372 37.2522 5.76762 35.62C4.05488 34.1532 3.19015 32.697 3.19015 31.5153C3.19015 29.0008 6.93904 25.7935 13.1915 23.6135C13.9502 23.349 14.7443 23.0997 15.5685 22.8656C16.4326 25.6765 17.5662 28.6153 18.9341 31.5871C17.5485 34.6031 16.3988 37.5887 15.5262 40.4326C14.9387 40.2637 14.3694 40.0859 13.8217 39.8989ZM17.1608 17.17C15.863 10.5376 16.7249 5.53435 18.8938 4.27886C21.2041 2.94139 26.3127 4.84834 31.697 9.62925C32.0412 9.93482 32.3867 10.2547 32.7332 10.5856C30.7268 12.7399 28.7443 15.1927 26.8504 17.8654C23.6027 18.1664 20.4939 18.65 17.6355 19.2975C17.4558 18.5746 17.2966 17.8644 17.1608 17.17ZM46.9483 24.5253C46.265 23.3451 45.5635 22.1927 44.8484 21.0718C47.0517 21.3504 49.1627 21.7201 51.1451 22.1726C50.55 24.08 49.8081 26.0744 48.9349 28.1189C48.3085 26.9296 47.646 25.7306 46.9483 24.5253ZM34.801 12.6938C36.1618 14.168 37.5244 15.8139 38.8647 17.5996C37.5141 17.5358 36.1468 17.5027 34.7681 17.5027C33.4025 17.5027 32.0452 17.5351 30.703 17.5978C32.0446 15.8286 33.4191 14.185 34.801 12.6938ZM22.576 24.5458C21.8934 25.7293 21.2432 26.9219 20.6266 28.1167C19.7675 26.0793 19.0326 24.0758 18.4323 22.1413C20.4025 21.7004 22.5036 21.3399 24.6929 21.0667C23.9676 22.1979 23.2604 23.359 22.576 24.5458ZM24.7559 42.1744C22.494 41.9221 20.3613 41.5801 18.3916 41.1514C19.0015 39.1824 19.7527 37.1362 20.6299 35.0549C21.2481 36.2488 21.9009 37.4418 22.5876 38.628C23.2872 39.8364 24.012 41.0201 24.7559 42.1744ZM34.8827 50.5448C33.4845 49.0362 32.0898 47.3675 30.7278 45.5725C32.05 45.6244 33.3981 45.6509 34.7681 45.6509C36.1756 45.6509 37.5671 45.6192 38.9366 45.5583C37.5919 47.3856 36.2342 49.0569 34.8827 50.5448ZM48.9631 34.9488C49.8861 37.0526 50.6642 39.0881 51.2819 41.0236C49.2797 41.4803 47.118 41.8482 44.8403 42.1216C45.5571 40.9856 46.2648 39.8134 46.9601 38.6077C47.6636 37.3879 48.3315 36.1662 48.9631 34.9488ZM44.4048 37.1339C43.3253 39.0056 42.2171 40.7924 41.092 42.4789C39.0428 42.6254 36.9258 42.7009 34.7681 42.7009C32.6191 42.7009 30.5288 42.6342 28.5159 42.5035C27.3454 40.7948 26.2131 39.0028 25.1405 37.15C24.0708 35.3023 23.0864 33.439 22.1943 31.5861C23.0862 29.729 24.0682 27.8636 25.1318 26.0192L25.1316 26.0195C26.198 24.1702 27.3204 22.3869 28.48 20.6889C30.5337 20.5337 32.6397 20.4527 34.768 20.4527C36.9059 20.4527 39.0147 20.5343 41.0678 20.6909C42.2097 22.3765 43.3245 24.154 44.3951 26.0036C45.4779 27.8739 46.4725 29.7269 47.372 31.5442C46.4752 33.3928 45.4828 35.2645 44.4048 37.1339ZM50.4903 4.1911C52.8028 5.52464 53.7021 10.9028 52.2492 17.9552C52.1565 18.4052 52.0521 18.8636 51.9388 19.3281C49.0738 18.6671 45.9628 18.1751 42.7056 17.8696C40.8081 15.1675 38.8417 12.7109 36.868 10.5842C37.3987 10.0737 37.9286 9.58697 38.4563 9.12762C43.5544 4.69088 48.3194 2.93918 50.4903 4.1911ZM34.7681 25.3489C38.1737 25.3489 40.9346 28.1096 40.9346 31.5153C40.9346 34.9209 38.1737 37.6818 34.7681 37.6818C31.3625 37.6818 28.6017 34.9209 28.6017 31.5153C28.6017 28.1096 31.3625 25.3489 34.7681 25.3489Z" fill="#257BC2"></path></g></svg>