<svg xmlns="http://www.w3.org/2000/svg" width="72" height="62" viewBox="0 0 72 62" fill="none"><g id="Redis logo" clip-path="url(#clip0_650_2799)"><path id="Vector" d="M68.6927 47.1805C64.8773 49.1692 45.1126 57.2957 40.9048 59.4894C36.697 61.6834 34.3595 61.6621 31.0353 60.0731C27.7114 58.484 6.67825 49.988 2.88936 48.1769C0.995887 47.2721 0 46.508 0 45.7863V38.5599C0 38.5599 27.3827 32.5988 31.8033 31.0128C36.2236 29.4268 37.7574 29.3696 41.5192 30.7475C45.2816 32.126 67.7759 36.1844 71.4938 37.5461L71.4921 44.6704C71.4927 45.3847 70.6348 46.1684 68.6927 47.1805Z" fill="#912626"></path><path id="Vector_2" d="M68.6913 39.9969C64.8761 41.9848 45.112 50.1117 40.9042 52.3051C36.6967 54.4993 34.3591 54.4778 31.0352 52.8887C27.7111 51.3008 6.67874 42.8034 2.89013 40.9934C-0.898483 39.1823 -0.977797 37.9359 2.74379 36.4787C6.46538 35.0209 27.3823 26.8144 31.8035 25.2284C36.2238 23.643 37.7573 23.5852 41.5191 24.9637C45.2812 26.3416 64.9275 34.1615 68.6449 35.523C72.3637 36.8861 72.5064 38.0085 68.6913 39.9969Z" fill="#C6302B"></path><path id="Vector_3" d="M68.6927 35.4879C64.8773 37.4769 45.1126 45.6032 40.9048 47.7977C36.697 49.9908 34.3595 49.9696 31.0353 48.3806C27.7111 46.7923 6.67825 38.2955 2.88936 36.4844C0.995887 35.5795 0 34.8166 0 34.0946V26.8673C0 26.8673 27.3827 20.9065 31.8033 19.3205C36.2236 17.7346 37.7574 17.677 41.5192 19.0552C45.2818 20.4335 67.7761 24.491 71.4938 25.853L71.4921 32.9781C71.4927 33.6922 70.6348 34.4758 68.6927 35.4879Z" fill="#912626"></path><path id="Vector_4" d="M68.6913 28.3044C64.8761 30.2929 45.112 38.4191 40.9042 40.6134C36.6967 42.8068 34.3591 42.7853 31.0352 41.1962C27.7111 39.6083 6.67874 31.1111 2.89013 29.3009C-0.898483 27.4904 -0.977797 26.2437 2.74379 24.7859C6.46538 23.3289 27.3826 15.1219 31.8035 13.5362C36.2238 11.9505 37.7573 11.893 41.5191 13.2712C45.2812 14.6491 64.9275 22.4685 68.6449 23.8305C72.3637 25.1933 72.5064 26.316 68.6913 28.3044Z" fill="#C6302B"></path><path id="Vector_5" d="M68.6927 23.3615C64.8773 25.3499 45.1126 33.4767 40.9048 35.6713C36.697 37.8647 34.3595 37.8432 31.0353 36.2541C27.7111 34.6659 6.67825 26.1687 2.88936 24.3585C0.995887 23.4528 0 22.6895 0 21.9685V14.7409C0 14.7409 27.3827 8.78036 31.8033 7.19465C36.2236 5.60838 37.7574 5.55141 41.5192 6.92934C45.2818 8.30755 67.7761 12.3651 71.4938 13.7271L71.4921 20.8519C71.4927 21.5655 70.6348 22.3491 68.6927 23.3615Z" fill="#912626"></path><path id="Vector_6" d="M68.6911 16.1781C64.876 18.1665 45.1118 26.2933 40.904 28.4867C36.6965 30.6801 34.359 30.6586 31.0351 29.0704C27.7112 27.4813 6.6786 18.9847 2.89027 17.1742C-0.898622 15.364 -0.977657 14.117 2.74365 12.6595C6.46524 11.2023 27.3825 2.99638 31.8034 1.41011C36.2237 -0.175876 37.7572 -0.232848 41.519 1.14536C45.2811 2.52357 64.9274 10.3429 68.6448 11.7049C72.3635 13.0667 72.5063 14.1896 68.6911 16.1781Z" fill="#C6302B"></path><path id="Vector_7" d="M44.4836 9.14902L38.3368 9.78716L36.9608 13.0982L34.7383 9.40344L27.6406 8.76558L32.9367 6.85563L31.3477 3.92383L36.3062 5.8631L40.9806 4.33268L39.7172 7.36419L44.4836 9.14902ZM36.5938 25.2122L25.1221 20.4543L41.5601 17.931L36.5938 25.2122ZM20.6892 10.9894C25.5416 10.9894 29.4752 12.5143 29.4752 14.3949C29.4752 16.2761 25.5416 17.8006 20.6892 17.8006C15.8369 17.8006 11.9033 16.2758 11.9033 14.3949C11.9033 12.5143 15.8369 10.9894 20.6892 10.9894Z" fill="white"></path><path id="Vector_8" d="M51.748 10.053L61.4768 13.8975L51.7564 17.7383L51.748 10.053Z" fill="#621B1C"></path><path id="Vector_9" d="M40.9844 14.3102L51.7475 10.0527L51.7559 17.738L50.7006 18.1508L40.9844 14.3102Z" fill="#9A2928"></path></g><defs><clipPath id="clip0_650_2799"><rect width="71.5084" height="61.44" fill="white"></rect></clipPath></defs></svg>