<svg xmlns="http://www.w3.org/2000/svg" width="59" height="62" viewBox="0 0 59 62" fill="none"><g id="selenium logo" clip-path="url(#clip0_623_392)"><g id="Group"><path id="Vector" d="M53.8012 0.187309C53.9508 0.177854 54.0928 0.254365 54.1672 0.384546C54.2416 0.514727 54.2354 0.675892 54.1513 0.80001L39.0088 21.3693C38.8978 21.4945 38.7385 21.5662 38.5712 21.5662C38.4038 21.5662 38.2445 21.4945 38.1335 21.3693L32.7943 15.4173C32.6639 15.2819 32.4791 15.2131 32.2919 15.2301C32.1047 15.2471 31.9353 15.3482 31.8315 15.5048L28.5929 19.6187C28.4904 19.8504 28.5241 20.1196 28.6804 20.3189L38.3086 30.2972C38.4196 30.4225 38.5789 30.4942 38.7462 30.4942C38.9136 30.4942 39.0729 30.4225 39.1839 30.2972L58.0901 9.02772C58.2017 8.90775 58.3747 8.86701 58.5281 8.92454C58.6816 8.98208 58.7851 9.12652 58.7903 9.2903V61.0198C58.7976 61.138 58.7538 61.2535 58.6701 61.3372C58.5864 61.4209 58.4708 61.4647 58.3527 61.4575H0.758732C0.640589 61.4647 0.525014 61.4209 0.441318 61.3372C0.357622 61.2535 0.313844 61.138 0.321088 61.0198V0.624953C0.313844 0.50681 0.357622 0.391235 0.441318 0.307539C0.525014 0.223843 0.640589 0.180065 0.758732 0.187309H53.8012ZM38.9213 35.1113C36.3155 35.0655 33.8041 36.0865 31.9695 37.9376C30.1349 39.7888 29.1364 42.3092 29.2056 44.9145C29.2056 50.954 33.582 54.8053 39.2714 54.8053C41.9051 54.8708 44.4877 54.0714 46.6238 52.5295C46.8218 52.3497 46.859 52.0523 46.7113 51.8293L45.1358 49.466C44.9587 49.2629 44.6573 49.2252 44.4356 49.3785C43.0662 50.3137 41.4545 50.8307 39.7966 50.8665C36.7331 50.8665 34.8074 48.9408 34.4573 46.6651C34.4637 46.5712 34.5385 46.4964 34.6324 46.49H47.8492C48.131 46.471 48.3553 46.2466 48.3744 45.9649V45.4397C48.3744 39.3127 44.5231 35.1113 38.9213 35.1113ZM25.8795 31.7852C23.221 29.6121 19.8571 28.4908 16.4264 28.6342C10.4744 28.6342 6.79822 32.1353 6.79822 36.3367C6.79822 45.8773 21.328 42.8138 21.328 47.2778C21.328 48.6783 19.9275 50.0787 16.9516 50.0787C14.1251 50.102 11.3982 49.0363 9.33655 47.1027C9.21347 46.9877 9.04673 46.9313 8.87906 46.9481C8.7114 46.9648 8.55912 47.0531 8.46127 47.1903L6.18552 50.3413C6.03785 50.5643 6.07503 50.8617 6.27305 51.0415C8.63632 53.2298 11.9624 54.7177 16.6014 54.7177C23.4287 54.7177 26.7548 51.2166 26.9298 46.6651C26.9298 37.212 12.4001 39.9254 12.4001 35.8991C12.4001 34.4111 13.713 33.3607 15.9887 33.3607C18.4974 33.3263 20.9407 34.1614 22.9035 35.724C23.0189 35.8185 23.1676 35.8625 23.3158 35.8461C23.4641 35.8296 23.5994 35.754 23.6913 35.6365L25.967 32.573C26.0616 32.4576 26.1056 32.3089 26.0891 32.1607C26.0726 32.0124 25.9971 31.877 25.8795 31.7852ZM39.0088 38.9626C41.3895 38.8294 43.4447 40.6131 43.6478 42.9889C43.6415 43.0828 43.5667 43.1576 43.4728 43.1639H34.5448C34.4509 43.1576 34.3761 43.0828 34.3698 42.9889C34.6625 40.6598 36.6617 38.9246 39.0088 38.9626Z" fill="#2CB134"></path></g></g><defs><clipPath id="clip0_623_392"><rect width="58.4708" height="61.44" fill="white" transform="translate(0.320312 0.186523)"></rect></clipPath></defs></svg>